<?xml version="1.0" encoding="utf-8" standalone="no"?>
<!DOCTYPE svg PUBLIC "-//W3C//DTD SVG 1.1//EN"
  "http://www.w3.org/Graphics/SVG/1.1/DTD/svg11.dtd">
<svg xmlns:xlink="http://www.w3.org/1999/xlink" width="856.970702pt" height="639.838125pt" viewBox="0 0 856.970702 639.838125" xmlns="http://www.w3.org/2000/svg" version="1.1">
 <metadata>
  <rdf:RDF xmlns:dc="http://purl.org/dc/elements/1.1/" xmlns:cc="http://creativecommons.org/ns#" xmlns:rdf="http://www.w3.org/1999/02/22-rdf-syntax-ns#">
   <cc:Work>
    <dc:type rdf:resource="http://purl.org/dc/dcmitype/StillImage"/>
    <dc:date>2026-04-09T17:59:06.212814</dc:date>
    <dc:format>image/svg+xml</dc:format>
    <dc:creator>
     <cc:Agent>
      <dc:title>Matplotlib v3.10.8, https://matplotlib.org/</dc:title>
     </cc:Agent>
    </dc:creator>
   </cc:Work>
  </rdf:RDF>
 </metadata>
 <defs>
  <style type="text/css">*{stroke-linejoin: round; stroke-linecap: butt}</style>
 </defs>
 <g id="figure_1">
  <g id="patch_1">
   <path d="M 0 639.838125 
L 856.970702 639.838125 
L 856.970702 0 
L 0 0 
z
" style="fill: #ffffff"/>
  </g>
  <g id="axes_1">
   <g id="patch_2">
    <path d="M 239.070993 571.166772 
Q 262.588979 446.323346 285.597072 324.186648 
" clip-path="url(#p834c944b5a)" style="fill: none; stroke: #264653; stroke-opacity: 0.65; stroke-width: 2.463553; stroke-linecap: round"/>
    <path d="M 280.726406 330.595752 
L 285.597072 324.186648 
L 287.801956 331.928643 
z
" clip-path="url(#p834c944b5a)" style="fill: #264653; fill-opacity: 0.65; stroke: #264653; stroke-opacity: 0.65; stroke-width: 2.463553; stroke-linecap: round"/>
   </g>
   <g id="patch_3">
    <path d="M 425.908072 347.999703 
Q 361.007916 331.547157 298.777642 315.771441 
" clip-path="url(#p834c944b5a)" style="fill: none; stroke: #264653; stroke-opacity: 0.65; stroke-width: 2.463553; stroke-linecap: round"/>
    <path d="M 304.872237 321.030331 
L 298.777642 315.771441 
L 306.64151 314.051099 
z
" clip-path="url(#p834c944b5a)" style="fill: #264653; fill-opacity: 0.65; stroke: #264653; stroke-opacity: 0.65; stroke-width: 2.463553; stroke-linecap: round"/>
   </g>
   <g id="patch_4">
    <path d="M 385.311942 462.496672 
Q 338.878587 391.358002 293.950714 322.525822 
" clip-path="url(#p834c944b5a)" style="fill: none; stroke: #264653; stroke-opacity: 0.65; stroke-width: 2.463553; stroke-linecap: round"/>
    <path d="M 294.871485 330.522833 
L 293.950714 322.525822 
L 300.900785 326.587412 
z
" clip-path="url(#p834c944b5a)" style="fill: #264653; fill-opacity: 0.65; stroke: #264653; stroke-opacity: 0.65; stroke-width: 2.463553; stroke-linecap: round"/>
   </g>
   <g id="patch_5">
    <path d="M 127.640581 382.605156 
Q 203.705456 349.512822 276.970138 317.638723 
" clip-path="url(#p834c944b5a)" style="fill: none; stroke: #264653; stroke-opacity: 0.65; stroke-width: 2.731325; stroke-linecap: round"/>
    <path d="M 268.931722 317.209934 
L 276.970138 317.638723 
L 271.804057 323.812183 
z
" clip-path="url(#p834c944b5a)" style="fill: #264653; fill-opacity: 0.65; stroke: #264653; stroke-opacity: 0.65; stroke-width: 2.731325; stroke-linecap: round"/>
   </g>
   <g id="patch_6">
    <path d="M 243.359388 456.10439 
Q 264.254021 388.669704 284.244852 324.151921 
" clip-path="url(#p834c944b5a)" style="fill: none; stroke: #264653; stroke-opacity: 0.65; stroke-width: 2.731325; stroke-linecap: round"/>
    <path d="M 278.67517 329.96386 
L 284.244852 324.151921 
L 285.552595 332.09483 
z
" clip-path="url(#p834c944b5a)" style="fill: #264653; fill-opacity: 0.65; stroke: #264653; stroke-opacity: 0.65; stroke-width: 2.731325; stroke-linecap: round"/>
   </g>
   <g id="patch_7">
    <path d="M 84.247539 539.510335 
Q 183.087245 429.458142 280.08653 321.455148 
" clip-path="url(#p834c944b5a)" style="fill: none; stroke: #264653; stroke-opacity: 0.65; stroke-width: 2.463553; stroke-linecap: round"/>
    <path d="M 272.597195 324.406395 
L 280.08653 321.455148 
L 277.953926 329.217365 
z
" clip-path="url(#p834c944b5a)" style="fill: #264653; fill-opacity: 0.65; stroke: #264653; stroke-opacity: 0.65; stroke-width: 2.463553; stroke-linecap: round"/>
   </g>
   <g id="patch_8">
    <path d="M 74.77313 474.707331 
Q 177.792983 396.456395 278.619485 319.871466 
" clip-path="url(#p834c944b5a)" style="fill: none; stroke: #264653; stroke-opacity: 0.65; stroke-width: 2.463553; stroke-linecap: round"/>
    <path d="M 270.708412 321.359733 
L 278.619485 319.871466 
L 275.063454 327.093284 
z
" clip-path="url(#p834c944b5a)" style="fill: #264653; fill-opacity: 0.65; stroke: #264653; stroke-opacity: 0.65; stroke-width: 2.463553; stroke-linecap: round"/>
   </g>
   <g id="patch_9">
    <path d="M 171.269745 524.817235 
Q 227.40527 422.685038 282.214103 322.966606 
" clip-path="url(#p834c944b5a)" style="fill: none; stroke: #264653; stroke-opacity: 0.65; stroke-width: 2.463553; stroke-linecap: round"/>
    <path d="M 275.59119 327.542304 
L 282.214103 322.966606 
L 281.900914 331.010356 
z
" clip-path="url(#p834c944b5a)" style="fill: #264653; fill-opacity: 0.65; stroke: #264653; stroke-opacity: 0.65; stroke-width: 2.463553; stroke-linecap: round"/>
   </g>
   <g id="patch_10">
    <path d="M 294.925727 308.17675 
Q 466.747859 194.122586 637.05 81.077381 
" clip-path="url(#p834c944b5a)" style="fill: none; stroke: #264653; stroke-opacity: 0.65; stroke-width: 1.631777; stroke-linecap: round"/>
    <path d="M 629.060344 82.059922 
L 637.05 81.077381 
L 633.042239 88.058631 
z
" clip-path="url(#p834c944b5a)" style="fill: #264653; fill-opacity: 0.65; stroke: #264653; stroke-opacity: 0.65; stroke-width: 1.631777; stroke-linecap: round"/>
   </g>
   <g id="patch_11">
    <path d="M 311.904886 544.809715 
Q 300.257324 433.194924 288.92671 324.617355 
" clip-path="url(#p834c944b5a)" style="fill: none; stroke: #264653; stroke-opacity: 0.65; stroke-width: 2.731325; stroke-linecap: round"/>
    <path d="M 286.093451 332.152118 
L 288.92671 324.617355 
L 293.254565 331.40482 
z
" clip-path="url(#p834c944b5a)" style="fill: #264653; fill-opacity: 0.65; stroke: #264653; stroke-opacity: 0.65; stroke-width: 2.731325; stroke-linecap: round"/>
   </g>
   <g id="patch_12">
    <path d="M 298.341132 276.824485 
Q 294.247712 290.741505 291.015982 301.728907 
" clip-path="url(#p834c944b5a)" style="fill: none; stroke: #264653; stroke-opacity: 0.65; stroke-width: 2.731325; stroke-linecap: round"/>
    <path d="M 296.501365 295.837339 
L 291.015982 301.728907 
L 289.593957 293.80566 
z
" clip-path="url(#p834c944b5a)" style="fill: #264653; fill-opacity: 0.65; stroke: #264653; stroke-opacity: 0.65; stroke-width: 2.731325; stroke-linecap: round"/>
   </g>
   <g id="PathCollection_1">
    <path d="M 237.467937 592.424021 
C 240.848626 592.424021 244.091306 591.080859 246.481815 588.69035 
C 248.872323 586.299842 250.215485 583.057162 250.215485 579.676472 
C 250.215485 576.295783 248.872323 573.053102 246.481815 570.662594 
C 244.091306 568.272085 240.848626 566.928923 237.467937 566.928923 
C 234.087247 566.928923 230.844567 568.272085 228.454058 570.662594 
C 226.06355 573.053102 224.720388 576.295783 224.720388 579.676472 
C 224.720388 583.057162 226.06355 586.299842 228.454058 588.69035 
C 230.844567 591.080859 234.087247 592.424021 237.467937 592.424021 
z
" clip-path="url(#p834c944b5a)" style="fill: #88a8cf; stroke: #88a8cf"/>
    <path d="M 434.305218 362.875975 
C 437.685907 362.875975 440.928587 361.532812 443.319096 359.142304 
C 445.709604 356.751796 447.052766 353.509115 447.052766 350.128426 
C 447.052766 346.747736 445.709604 343.505056 443.319096 341.114548 
C 440.928587 338.724039 437.685907 337.380877 434.305218 337.380877 
C 430.924528 337.380877 427.681848 338.724039 425.29134 341.114548 
C 422.900831 343.505056 421.557669 346.747736 421.557669 350.128426 
C 421.557669 353.509115 422.900831 356.751796 425.29134 359.142304 
C 427.681848 361.532812 430.924528 362.875975 434.305218 362.875975 
z
" clip-path="url(#p834c944b5a)" style="fill: #f5b878; stroke: #f5b878"/>
    <path d="M 390.044827 482.495283 
C 393.425517 482.495283 396.668197 481.15212 399.058706 478.761612 
C 401.449214 476.371104 402.792376 473.128423 402.792376 469.747734 
C 402.792376 466.367044 401.449214 463.124364 399.058706 460.733856 
C 396.668197 458.343347 393.425517 457.000185 390.044827 457.000185 
C 386.664138 457.000185 383.421458 458.343347 381.030949 460.733856 
C 378.640441 463.124364 377.297279 466.367044 377.297279 469.747734 
C 377.297279 473.128423 378.640441 476.371104 381.030949 478.761612 
C 383.421458 481.15212 386.664138 482.495283 390.044827 482.495283 
z
" clip-path="url(#p834c944b5a)" style="fill: #88a8cf; stroke: #88a8cf"/>
    <path d="M 119.701031 398.806838 
C 123.08172 398.806838 126.324401 397.463676 128.714909 395.073168 
C 131.105418 392.682659 132.44858 389.439979 132.44858 386.059289 
C 132.44858 382.6786 131.105418 379.43592 128.714909 377.045411 
C 126.324401 374.654903 123.08172 373.311741 119.701031 373.311741 
C 116.320341 373.311741 113.077661 374.654903 110.687153 377.045411 
C 108.296644 379.43592 106.953482 382.6786 106.953482 386.059289 
C 106.953482 389.439979 108.296644 392.682659 110.687153 395.073168 
C 113.077661 397.463676 116.320341 398.806838 119.701031 398.806838 
z
" clip-path="url(#p834c944b5a)" style="fill: #f5b878; stroke: #f5b878"/>
    <path d="M 240.795116 477.127787 
C 244.175806 477.127787 247.418486 475.784625 249.808995 473.394116 
C 252.199503 471.003608 253.542665 467.760928 253.542665 464.380238 
C 253.542665 460.999549 252.199503 457.756868 249.808995 455.36636 
C 247.418486 452.975851 244.175806 451.632689 240.795116 451.632689 
C 237.414427 451.632689 234.171747 452.975851 231.781238 455.36636 
C 229.39073 457.756868 228.047568 460.999549 228.047568 464.380238 
C 228.047568 467.760928 229.39073 471.003608 231.781238 473.394116 
C 234.171747 475.784625 237.414427 477.127787 240.795116 477.127787 
z
" clip-path="url(#p834c944b5a)" style="fill: #f5b878; stroke: #f5b878"/>
    <path d="M 78.458751 571.450908 
C 85.22013 571.450908 91.705491 568.764583 96.486508 563.983567 
C 101.267525 559.20255 103.953849 552.717189 103.953849 545.95581 
C 103.953849 539.194431 101.267525 532.709071 96.486508 527.928054 
C 91.705491 523.147037 85.22013 520.460713 78.458751 520.460713 
C 71.697372 520.460713 65.212012 523.147037 60.430995 527.928054 
C 55.649978 532.709071 52.963654 539.194431 52.963654 545.95581 
C 52.963654 552.717189 55.649978 559.20255 60.430995 563.983567 
C 65.212012 568.764583 71.697372 571.450908 78.458751 571.450908 
z
" clip-path="url(#p834c944b5a)" style="fill: #f5b878; stroke: #f5b878"/>
    <path d="M 645.784066 100.774875 
C 652.545445 100.774875 659.030806 98.088551 663.811822 93.307534 
C 668.592839 88.526517 671.279164 82.041157 671.279164 75.279778 
C 671.279164 68.518399 668.592839 62.033038 663.811822 57.252022 
C 659.030806 52.471005 652.545445 49.78468 645.784066 49.78468 
C 639.022687 49.78468 632.537327 52.471005 627.75631 57.252022 
C 622.975293 62.033038 620.288969 68.518399 620.288969 75.279778 
C 620.288969 82.041157 622.975293 88.526517 627.75631 93.307534 
C 632.537327 98.088551 639.022687 100.774875 645.784066 100.774875 
z
" clip-path="url(#p834c944b5a)" style="fill: #f5b878; stroke: #f5b878"/>
    <path d="M 67.879934 492.690754 
C 71.260623 492.690754 74.503304 491.347592 76.893812 488.957084 
C 79.284321 486.566575 80.627483 483.323895 80.627483 479.943205 
C 80.627483 476.562516 79.284321 473.319836 76.893812 470.929327 
C 74.503304 468.538819 71.260623 467.195657 67.879934 467.195657 
C 64.499244 467.195657 61.256564 468.538819 58.866056 470.929327 
C 56.475547 473.319836 55.132385 476.562516 55.132385 479.943205 
C 55.132385 483.323895 56.475547 486.566575 58.866056 488.957084 
C 61.256564 491.347592 64.499244 492.690754 67.879934 492.690754 
z
" clip-path="url(#p834c944b5a)" style="fill: #f5b878; stroke: #f5b878"/>
    <path d="M 167.097529 545.155656 
C 170.478218 545.155656 173.720899 543.812494 176.111407 541.421985 
C 178.501916 539.031477 179.845078 535.788796 179.845078 532.408107 
C 179.845078 529.027418 178.501916 525.784737 176.111407 523.394229 
C 173.720899 521.00372 170.478218 519.660558 167.097529 519.660558 
C 163.71684 519.660558 160.474159 521.00372 158.083651 523.394229 
C 155.693142 525.784737 154.34998 529.027418 154.34998 532.408107 
C 154.34998 535.788796 155.693142 539.031477 158.083651 541.421985 
C 160.474159 543.812494 163.71684 545.155656 167.097529 545.155656 
z
" clip-path="url(#p834c944b5a)" style="fill: #f5b878; stroke: #f5b878"/>
    <path d="M 287.710827 338.461041 
C 294.472206 338.461041 300.957566 335.774716 305.738583 330.993699 
C 310.5196 326.212682 313.205924 319.727322 313.205924 312.965943 
C 313.205924 306.204564 310.5196 299.719203 305.738583 294.938187 
C 300.957566 290.15717 294.472206 287.470845 287.710827 287.470845 
C 280.949448 287.470845 274.464087 290.15717 269.68307 294.938187 
C 264.902053 299.719203 262.215729 306.204564 262.215729 312.965943 
C 262.215729 319.727322 264.902053 326.212682 269.68307 330.993699 
C 274.464087 335.774716 280.949448 338.461041 287.710827 338.461041 
z
" clip-path="url(#p834c944b5a)" style="fill: #f5b878; stroke: #f5b878"/>
    <path d="M 312.803515 566.168531 
C 316.184205 566.168531 319.426885 564.825369 321.817393 562.43486 
C 324.207902 560.044352 325.551064 556.801672 325.551064 553.420982 
C 325.551064 550.040293 324.207902 546.797612 321.817393 544.407104 
C 319.426885 542.016595 316.184205 540.673433 312.803515 540.673433 
C 309.422826 540.673433 306.180146 542.016595 303.789637 544.407104 
C 301.399129 546.797612 300.055967 550.040293 300.055967 553.420982 
C 300.055967 556.801672 301.399129 560.044352 303.789637 562.43486 
C 306.180146 564.825369 309.422826 566.168531 312.803515 566.168531 
z
" clip-path="url(#p834c944b5a)" style="fill: #88a8cf; stroke: #88a8cf"/>
    <path d="M 300.78544 281.26175 
C 304.16613 281.26175 307.40881 279.918588 309.799318 277.528079 
C 312.189827 275.137571 313.532989 271.894891 313.532989 268.514201 
C 313.532989 265.133512 312.189827 261.890831 309.799318 259.500323 
C 307.40881 257.109815 304.16613 255.766652 300.78544 255.766652 
C 297.404751 255.766652 294.162071 257.109815 291.771562 259.500323 
C 289.381054 261.890831 288.037891 265.133512 288.037891 268.514201 
C 288.037891 271.894891 289.381054 275.137571 291.771562 277.528079 
C 294.162071 279.918588 297.404751 281.26175 300.78544 281.26175 
z
" clip-path="url(#p834c944b5a)" style="fill: #88a8cf; stroke: #88a8cf"/>
   </g>
   <g id="text_1">
    <g clip-path="url(#p834c944b5a)">
     <!-- 11 Tdo 1026/2020 -->
     <g transform="translate(200.697937 581.883972) scale(0.08 -0.08)">
      <defs>
       <path id="DejaVuSans-31" d="M 794 531 
L 1825 531 
L 1825 4091 
L 703 3866 
L 703 4441 
L 1819 4666 
L 2450 4666 
L 2450 531 
L 3481 531 
L 3481 0 
L 794 0 
L 794 531 
z
" transform="scale(0.015625)"/>
       <path id="DejaVuSans-20" transform="scale(0.015625)"/>
       <path id="DejaVuSans-54" d="M -19 4666 
L 3928 4666 
L 3928 4134 
L 2272 4134 
L 2272 0 
L 1638 0 
L 1638 4134 
L -19 4134 
L -19 4666 
z
" transform="scale(0.015625)"/>
       <path id="DejaVuSans-64" d="M 2906 2969 
L 2906 4863 
L 3481 4863 
L 3481 0 
L 2906 0 
L 2906 525 
Q 2725 213 2448 61 
Q 2172 -91 1784 -91 
Q 1150 -91 751 415 
Q 353 922 353 1747 
Q 353 2572 751 3078 
Q 1150 3584 1784 3584 
Q 2172 3584 2448 3432 
Q 2725 3281 2906 2969 
z
M 947 1747 
Q 947 1113 1208 752 
Q 1469 391 1925 391 
Q 2381 391 2643 752 
Q 2906 1113 2906 1747 
Q 2906 2381 2643 2742 
Q 2381 3103 1925 3103 
Q 1469 3103 1208 2742 
Q 947 2381 947 1747 
z
" transform="scale(0.015625)"/>
       <path id="DejaVuSans-6f" d="M 1959 3097 
Q 1497 3097 1228 2736 
Q 959 2375 959 1747 
Q 959 1119 1226 758 
Q 1494 397 1959 397 
Q 2419 397 2687 759 
Q 2956 1122 2956 1747 
Q 2956 2369 2687 2733 
Q 2419 3097 1959 3097 
z
M 1959 3584 
Q 2709 3584 3137 3096 
Q 3566 2609 3566 1747 
Q 3566 888 3137 398 
Q 2709 -91 1959 -91 
Q 1206 -91 779 398 
Q 353 888 353 1747 
Q 353 2609 779 3096 
Q 1206 3584 1959 3584 
z
" transform="scale(0.015625)"/>
       <path id="DejaVuSans-30" d="M 2034 4250 
Q 1547 4250 1301 3770 
Q 1056 3291 1056 2328 
Q 1056 1369 1301 889 
Q 1547 409 2034 409 
Q 2525 409 2770 889 
Q 3016 1369 3016 2328 
Q 3016 3291 2770 3770 
Q 2525 4250 2034 4250 
z
M 2034 4750 
Q 2819 4750 3233 4129 
Q 3647 3509 3647 2328 
Q 3647 1150 3233 529 
Q 2819 -91 2034 -91 
Q 1250 -91 836 529 
Q 422 1150 422 2328 
Q 422 3509 836 4129 
Q 1250 4750 2034 4750 
z
" transform="scale(0.015625)"/>
       <path id="DejaVuSans-32" d="M 1228 531 
L 3431 531 
L 3431 0 
L 469 0 
L 469 531 
Q 828 903 1448 1529 
Q 2069 2156 2228 2338 
Q 2531 2678 2651 2914 
Q 2772 3150 2772 3378 
Q 2772 3750 2511 3984 
Q 2250 4219 1831 4219 
Q 1534 4219 1204 4116 
Q 875 4013 500 3803 
L 500 4441 
Q 881 4594 1212 4672 
Q 1544 4750 1819 4750 
Q 2544 4750 2975 4387 
Q 3406 4025 3406 3419 
Q 3406 3131 3298 2873 
Q 3191 2616 2906 2266 
Q 2828 2175 2409 1742 
Q 1991 1309 1228 531 
z
" transform="scale(0.015625)"/>
       <path id="DejaVuSans-36" d="M 2113 2584 
Q 1688 2584 1439 2293 
Q 1191 2003 1191 1497 
Q 1191 994 1439 701 
Q 1688 409 2113 409 
Q 2538 409 2786 701 
Q 3034 994 3034 1497 
Q 3034 2003 2786 2293 
Q 2538 2584 2113 2584 
z
M 3366 4563 
L 3366 3988 
Q 3128 4100 2886 4159 
Q 2644 4219 2406 4219 
Q 1781 4219 1451 3797 
Q 1122 3375 1075 2522 
Q 1259 2794 1537 2939 
Q 1816 3084 2150 3084 
Q 2853 3084 3261 2657 
Q 3669 2231 3669 1497 
Q 3669 778 3244 343 
Q 2819 -91 2113 -91 
Q 1303 -91 875 529 
Q 447 1150 447 2328 
Q 447 3434 972 4092 
Q 1497 4750 2381 4750 
Q 2619 4750 2861 4703 
Q 3103 4656 3366 4563 
z
" transform="scale(0.015625)"/>
       <path id="DejaVuSans-2f" d="M 1625 4666 
L 2156 4666 
L 531 -594 
L 0 -594 
L 1625 4666 
z
" transform="scale(0.015625)"/>
      </defs>
      <use xlink:href="#DejaVuSans-31"/>
      <use xlink:href="#DejaVuSans-31" transform="translate(63.623047 0)"/>
      <use xlink:href="#DejaVuSans-20" transform="translate(127.246094 0)"/>
      <use xlink:href="#DejaVuSans-54" transform="translate(159.033203 0)"/>
      <use xlink:href="#DejaVuSans-64" transform="translate(220.117188 0)"/>
      <use xlink:href="#DejaVuSans-6f" transform="translate(283.59375 0)"/>
      <use xlink:href="#DejaVuSans-20" transform="translate(344.775391 0)"/>
      <use xlink:href="#DejaVuSans-31" transform="translate(376.5625 0)"/>
      <use xlink:href="#DejaVuSans-30" transform="translate(440.185547 0)"/>
      <use xlink:href="#DejaVuSans-32" transform="translate(503.808594 0)"/>
      <use xlink:href="#DejaVuSans-36" transform="translate(567.431641 0)"/>
      <use xlink:href="#DejaVuSans-2f" transform="translate(631.054688 0)"/>
      <use xlink:href="#DejaVuSans-32" transform="translate(664.746094 0)"/>
      <use xlink:href="#DejaVuSans-30" transform="translate(728.369141 0)"/>
      <use xlink:href="#DejaVuSans-32" transform="translate(791.992188 0)"/>
      <use xlink:href="#DejaVuSans-30" transform="translate(855.615234 0)"/>
     </g>
    </g>
   </g>
   <g id="text_2">
    <g clip-path="url(#p834c944b5a)">
     <!-- II. ÚS 1986/16 -->
     <g transform="translate(406.047093 352.536551) scale(0.08 -0.08)">
      <defs>
       <path id="DejaVuSans-49" d="M 628 4666 
L 1259 4666 
L 1259 0 
L 628 0 
L 628 4666 
z
" transform="scale(0.015625)"/>
       <path id="DejaVuSans-2e" d="M 684 794 
L 1344 794 
L 1344 0 
L 684 0 
L 684 794 
z
" transform="scale(0.015625)"/>
       <path id="DejaVuSans-da" d="M 556 4666 
L 1191 4666 
L 1191 1831 
Q 1191 1081 1462 751 
Q 1734 422 2344 422 
Q 2950 422 3222 751 
Q 3494 1081 3494 1831 
L 3494 4666 
L 4128 4666 
L 4128 1753 
Q 4128 841 3676 375 
Q 3225 -91 2344 -91 
Q 1459 -91 1007 375 
Q 556 841 556 1753 
L 556 4666 
z
M 2516 5921 
L 3094 5921 
L 2382 5096 
L 1903 5096 
L 2516 5921 
z
" transform="scale(0.015625)"/>
       <path id="DejaVuSans-53" d="M 3425 4513 
L 3425 3897 
Q 3066 4069 2747 4153 
Q 2428 4238 2131 4238 
Q 1616 4238 1336 4038 
Q 1056 3838 1056 3469 
Q 1056 3159 1242 3001 
Q 1428 2844 1947 2747 
L 2328 2669 
Q 3034 2534 3370 2195 
Q 3706 1856 3706 1288 
Q 3706 609 3251 259 
Q 2797 -91 1919 -91 
Q 1588 -91 1214 -16 
Q 841 59 441 206 
L 441 856 
Q 825 641 1194 531 
Q 1563 422 1919 422 
Q 2459 422 2753 634 
Q 3047 847 3047 1241 
Q 3047 1584 2836 1778 
Q 2625 1972 2144 2069 
L 1759 2144 
Q 1053 2284 737 2584 
Q 422 2884 422 3419 
Q 422 4038 858 4394 
Q 1294 4750 2059 4750 
Q 2388 4750 2728 4690 
Q 3069 4631 3425 4513 
z
" transform="scale(0.015625)"/>
       <path id="DejaVuSans-39" d="M 703 97 
L 703 672 
Q 941 559 1184 500 
Q 1428 441 1663 441 
Q 2288 441 2617 861 
Q 2947 1281 2994 2138 
Q 2813 1869 2534 1725 
Q 2256 1581 1919 1581 
Q 1219 1581 811 2004 
Q 403 2428 403 3163 
Q 403 3881 828 4315 
Q 1253 4750 1959 4750 
Q 2769 4750 3195 4129 
Q 3622 3509 3622 2328 
Q 3622 1225 3098 567 
Q 2575 -91 1691 -91 
Q 1453 -91 1209 -44 
Q 966 3 703 97 
z
M 1959 2075 
Q 2384 2075 2632 2365 
Q 2881 2656 2881 3163 
Q 2881 3666 2632 3958 
Q 2384 4250 1959 4250 
Q 1534 4250 1286 3958 
Q 1038 3666 1038 3163 
Q 1038 2656 1286 2365 
Q 1534 2075 1959 2075 
z
" transform="scale(0.015625)"/>
       <path id="DejaVuSans-38" d="M 2034 2216 
Q 1584 2216 1326 1975 
Q 1069 1734 1069 1313 
Q 1069 891 1326 650 
Q 1584 409 2034 409 
Q 2484 409 2743 651 
Q 3003 894 3003 1313 
Q 3003 1734 2745 1975 
Q 2488 2216 2034 2216 
z
M 1403 2484 
Q 997 2584 770 2862 
Q 544 3141 544 3541 
Q 544 4100 942 4425 
Q 1341 4750 2034 4750 
Q 2731 4750 3128 4425 
Q 3525 4100 3525 3541 
Q 3525 3141 3298 2862 
Q 3072 2584 2669 2484 
Q 3125 2378 3379 2068 
Q 3634 1759 3634 1313 
Q 3634 634 3220 271 
Q 2806 -91 2034 -91 
Q 1263 -91 848 271 
Q 434 634 434 1313 
Q 434 1759 690 2068 
Q 947 2378 1403 2484 
z
M 1172 3481 
Q 1172 3119 1398 2916 
Q 1625 2713 2034 2713 
Q 2441 2713 2670 2916 
Q 2900 3119 2900 3481 
Q 2900 3844 2670 4047 
Q 2441 4250 2034 4250 
Q 1625 4250 1398 4047 
Q 1172 3844 1172 3481 
z
" transform="scale(0.015625)"/>
      </defs>
      <use xlink:href="#DejaVuSans-49"/>
      <use xlink:href="#DejaVuSans-49" transform="translate(29.492188 0)"/>
      <use xlink:href="#DejaVuSans-2e" transform="translate(58.984375 0)"/>
      <use xlink:href="#DejaVuSans-20" transform="translate(90.771484 0)"/>
      <use xlink:href="#DejaVuSans-da" transform="translate(122.558594 0)"/>
      <use xlink:href="#DejaVuSans-53" transform="translate(195.751953 0)"/>
      <use xlink:href="#DejaVuSans-20" transform="translate(259.228516 0)"/>
      <use xlink:href="#DejaVuSans-31" transform="translate(291.015625 0)"/>
      <use xlink:href="#DejaVuSans-39" transform="translate(354.638672 0)"/>
      <use xlink:href="#DejaVuSans-38" transform="translate(418.261719 0)"/>
      <use xlink:href="#DejaVuSans-36" transform="translate(481.884766 0)"/>
      <use xlink:href="#DejaVuSans-2f" transform="translate(545.507812 0)"/>
      <use xlink:href="#DejaVuSans-31" transform="translate(579.199219 0)"/>
      <use xlink:href="#DejaVuSans-36" transform="translate(642.822266 0)"/>
     </g>
    </g>
   </g>
   <g id="text_3">
    <g clip-path="url(#p834c944b5a)">
     <!-- 3 Tdo 1155/2018 -->
     <g transform="translate(355.819827 471.955234) scale(0.08 -0.08)">
      <defs>
       <path id="DejaVuSans-33" d="M 2597 2516 
Q 3050 2419 3304 2112 
Q 3559 1806 3559 1356 
Q 3559 666 3084 287 
Q 2609 -91 1734 -91 
Q 1441 -91 1130 -33 
Q 819 25 488 141 
L 488 750 
Q 750 597 1062 519 
Q 1375 441 1716 441 
Q 2309 441 2620 675 
Q 2931 909 2931 1356 
Q 2931 1769 2642 2001 
Q 2353 2234 1838 2234 
L 1294 2234 
L 1294 2753 
L 1863 2753 
Q 2328 2753 2575 2939 
Q 2822 3125 2822 3475 
Q 2822 3834 2567 4026 
Q 2313 4219 1838 4219 
Q 1578 4219 1281 4162 
Q 984 4106 628 3988 
L 628 4550 
Q 988 4650 1302 4700 
Q 1616 4750 1894 4750 
Q 2613 4750 3031 4423 
Q 3450 4097 3450 3541 
Q 3450 3153 3228 2886 
Q 3006 2619 2597 2516 
z
" transform="scale(0.015625)"/>
       <path id="DejaVuSans-35" d="M 691 4666 
L 3169 4666 
L 3169 4134 
L 1269 4134 
L 1269 2991 
Q 1406 3038 1543 3061 
Q 1681 3084 1819 3084 
Q 2600 3084 3056 2656 
Q 3513 2228 3513 1497 
Q 3513 744 3044 326 
Q 2575 -91 1722 -91 
Q 1428 -91 1123 -41 
Q 819 9 494 109 
L 494 744 
Q 775 591 1075 516 
Q 1375 441 1709 441 
Q 2250 441 2565 725 
Q 2881 1009 2881 1497 
Q 2881 1984 2565 2268 
Q 2250 2553 1709 2553 
Q 1456 2553 1204 2497 
Q 953 2441 691 2322 
L 691 4666 
z
" transform="scale(0.015625)"/>
      </defs>
      <use xlink:href="#DejaVuSans-33"/>
      <use xlink:href="#DejaVuSans-20" transform="translate(63.623047 0)"/>
      <use xlink:href="#DejaVuSans-54" transform="translate(95.410156 0)"/>
      <use xlink:href="#DejaVuSans-64" transform="translate(156.494141 0)"/>
      <use xlink:href="#DejaVuSans-6f" transform="translate(219.970703 0)"/>
      <use xlink:href="#DejaVuSans-20" transform="translate(281.152344 0)"/>
      <use xlink:href="#DejaVuSans-31" transform="translate(312.939453 0)"/>
      <use xlink:href="#DejaVuSans-31" transform="translate(376.5625 0)"/>
      <use xlink:href="#DejaVuSans-35" transform="translate(440.185547 0)"/>
      <use xlink:href="#DejaVuSans-35" transform="translate(503.808594 0)"/>
      <use xlink:href="#DejaVuSans-2f" transform="translate(567.431641 0)"/>
      <use xlink:href="#DejaVuSans-32" transform="translate(601.123047 0)"/>
      <use xlink:href="#DejaVuSans-30" transform="translate(664.746094 0)"/>
      <use xlink:href="#DejaVuSans-31" transform="translate(728.369141 0)"/>
      <use xlink:href="#DejaVuSans-38" transform="translate(791.992188 0)"/>
     </g>
    </g>
   </g>
   <g id="text_4">
    <g clip-path="url(#p834c944b5a)">
     <!-- III. ÚS 1557/11 -->
     <g transform="translate(90.262906 388.467414) scale(0.08 -0.08)">
      <defs>
       <path id="DejaVuSans-37" d="M 525 4666 
L 3525 4666 
L 3525 4397 
L 1831 0 
L 1172 0 
L 2766 4134 
L 525 4134 
L 525 4666 
z
" transform="scale(0.015625)"/>
      </defs>
      <use xlink:href="#DejaVuSans-49"/>
      <use xlink:href="#DejaVuSans-49" transform="translate(29.492188 0)"/>
      <use xlink:href="#DejaVuSans-49" transform="translate(58.984375 0)"/>
      <use xlink:href="#DejaVuSans-2e" transform="translate(88.476562 0)"/>
      <use xlink:href="#DejaVuSans-20" transform="translate(120.263672 0)"/>
      <use xlink:href="#DejaVuSans-da" transform="translate(152.050781 0)"/>
      <use xlink:href="#DejaVuSans-53" transform="translate(225.244141 0)"/>
      <use xlink:href="#DejaVuSans-20" transform="translate(288.720703 0)"/>
      <use xlink:href="#DejaVuSans-31" transform="translate(320.507812 0)"/>
      <use xlink:href="#DejaVuSans-35" transform="translate(384.130859 0)"/>
      <use xlink:href="#DejaVuSans-35" transform="translate(447.753906 0)"/>
      <use xlink:href="#DejaVuSans-37" transform="translate(511.376953 0)"/>
      <use xlink:href="#DejaVuSans-2f" transform="translate(575 0)"/>
      <use xlink:href="#DejaVuSans-31" transform="translate(608.691406 0)"/>
      <use xlink:href="#DejaVuSans-31" transform="translate(672.314453 0)"/>
     </g>
    </g>
   </g>
   <g id="text_5">
    <g clip-path="url(#p834c944b5a)">
     <!-- III. ÚS 1784/14 -->
     <g transform="translate(211.356991 466.788363) scale(0.08 -0.08)">
      <defs>
       <path id="DejaVuSans-34" d="M 2419 4116 
L 825 1625 
L 2419 1625 
L 2419 4116 
z
M 2253 4666 
L 3047 4666 
L 3047 1625 
L 3713 1625 
L 3713 1100 
L 3047 1100 
L 3047 0 
L 2419 0 
L 2419 1100 
L 313 1100 
L 313 1709 
L 2253 4666 
z
" transform="scale(0.015625)"/>
      </defs>
      <use xlink:href="#DejaVuSans-49"/>
      <use xlink:href="#DejaVuSans-49" transform="translate(29.492188 0)"/>
      <use xlink:href="#DejaVuSans-49" transform="translate(58.984375 0)"/>
      <use xlink:href="#DejaVuSans-2e" transform="translate(88.476562 0)"/>
      <use xlink:href="#DejaVuSans-20" transform="translate(120.263672 0)"/>
      <use xlink:href="#DejaVuSans-da" transform="translate(152.050781 0)"/>
      <use xlink:href="#DejaVuSans-53" transform="translate(225.244141 0)"/>
      <use xlink:href="#DejaVuSans-20" transform="translate(288.720703 0)"/>
      <use xlink:href="#DejaVuSans-31" transform="translate(320.507812 0)"/>
      <use xlink:href="#DejaVuSans-37" transform="translate(384.130859 0)"/>
      <use xlink:href="#DejaVuSans-38" transform="translate(447.753906 0)"/>
      <use xlink:href="#DejaVuSans-34" transform="translate(511.376953 0)"/>
      <use xlink:href="#DejaVuSans-2f" transform="translate(575 0)"/>
      <use xlink:href="#DejaVuSans-31" transform="translate(608.691406 0)"/>
      <use xlink:href="#DejaVuSans-34" transform="translate(672.314453 0)"/>
     </g>
    </g>
   </g>
   <g id="text_6">
    <g clip-path="url(#p834c944b5a)">
     <!-- III. ÚS 1836/18 -->
     <g transform="translate(49.020626 548.363935) scale(0.08 -0.08)">
      <use xlink:href="#DejaVuSans-49"/>
      <use xlink:href="#DejaVuSans-49" transform="translate(29.492188 0)"/>
      <use xlink:href="#DejaVuSans-49" transform="translate(58.984375 0)"/>
      <use xlink:href="#DejaVuSans-2e" transform="translate(88.476562 0)"/>
      <use xlink:href="#DejaVuSans-20" transform="translate(120.263672 0)"/>
      <use xlink:href="#DejaVuSans-da" transform="translate(152.050781 0)"/>
      <use xlink:href="#DejaVuSans-53" transform="translate(225.244141 0)"/>
      <use xlink:href="#DejaVuSans-20" transform="translate(288.720703 0)"/>
      <use xlink:href="#DejaVuSans-31" transform="translate(320.507812 0)"/>
      <use xlink:href="#DejaVuSans-38" transform="translate(384.130859 0)"/>
      <use xlink:href="#DejaVuSans-33" transform="translate(447.753906 0)"/>
      <use xlink:href="#DejaVuSans-36" transform="translate(511.376953 0)"/>
      <use xlink:href="#DejaVuSans-2f" transform="translate(575 0)"/>
      <use xlink:href="#DejaVuSans-31" transform="translate(608.691406 0)"/>
      <use xlink:href="#DejaVuSans-38" transform="translate(672.314453 0)"/>
     </g>
    </g>
   </g>
   <g id="text_7">
    <g clip-path="url(#p834c944b5a)">
     <!-- III. ÚS 23/93 -->
     <g transform="translate(621.435941 77.687903) scale(0.08 -0.08)">
      <use xlink:href="#DejaVuSans-49"/>
      <use xlink:href="#DejaVuSans-49" transform="translate(29.492188 0)"/>
      <use xlink:href="#DejaVuSans-49" transform="translate(58.984375 0)"/>
      <use xlink:href="#DejaVuSans-2e" transform="translate(88.476562 0)"/>
      <use xlink:href="#DejaVuSans-20" transform="translate(120.263672 0)"/>
      <use xlink:href="#DejaVuSans-da" transform="translate(152.050781 0)"/>
      <use xlink:href="#DejaVuSans-53" transform="translate(225.244141 0)"/>
      <use xlink:href="#DejaVuSans-20" transform="translate(288.720703 0)"/>
      <use xlink:href="#DejaVuSans-32" transform="translate(320.507812 0)"/>
      <use xlink:href="#DejaVuSans-33" transform="translate(384.130859 0)"/>
      <use xlink:href="#DejaVuSans-2f" transform="translate(447.753906 0)"/>
      <use xlink:href="#DejaVuSans-39" transform="translate(481.445312 0)"/>
      <use xlink:href="#DejaVuSans-33" transform="translate(545.068359 0)"/>
     </g>
    </g>
   </g>
   <g id="text_8">
    <g clip-path="url(#p834c944b5a)">
     <!-- III. ÚS 2440/10 -->
     <g transform="translate(38.441809 482.35133) scale(0.08 -0.08)">
      <use xlink:href="#DejaVuSans-49"/>
      <use xlink:href="#DejaVuSans-49" transform="translate(29.492188 0)"/>
      <use xlink:href="#DejaVuSans-49" transform="translate(58.984375 0)"/>
      <use xlink:href="#DejaVuSans-2e" transform="translate(88.476562 0)"/>
      <use xlink:href="#DejaVuSans-20" transform="translate(120.263672 0)"/>
      <use xlink:href="#DejaVuSans-da" transform="translate(152.050781 0)"/>
      <use xlink:href="#DejaVuSans-53" transform="translate(225.244141 0)"/>
      <use xlink:href="#DejaVuSans-20" transform="translate(288.720703 0)"/>
      <use xlink:href="#DejaVuSans-32" transform="translate(320.507812 0)"/>
      <use xlink:href="#DejaVuSans-34" transform="translate(384.130859 0)"/>
      <use xlink:href="#DejaVuSans-34" transform="translate(447.753906 0)"/>
      <use xlink:href="#DejaVuSans-30" transform="translate(511.376953 0)"/>
      <use xlink:href="#DejaVuSans-2f" transform="translate(575 0)"/>
      <use xlink:href="#DejaVuSans-31" transform="translate(608.691406 0)"/>
      <use xlink:href="#DejaVuSans-30" transform="translate(672.314453 0)"/>
     </g>
    </g>
   </g>
   <g id="text_9">
    <g clip-path="url(#p834c944b5a)">
     <!-- III. ÚS 2687/11 -->
     <g transform="translate(137.659404 534.816232) scale(0.08 -0.08)">
      <use xlink:href="#DejaVuSans-49"/>
      <use xlink:href="#DejaVuSans-49" transform="translate(29.492188 0)"/>
      <use xlink:href="#DejaVuSans-49" transform="translate(58.984375 0)"/>
      <use xlink:href="#DejaVuSans-2e" transform="translate(88.476562 0)"/>
      <use xlink:href="#DejaVuSans-20" transform="translate(120.263672 0)"/>
      <use xlink:href="#DejaVuSans-da" transform="translate(152.050781 0)"/>
      <use xlink:href="#DejaVuSans-53" transform="translate(225.244141 0)"/>
      <use xlink:href="#DejaVuSans-20" transform="translate(288.720703 0)"/>
      <use xlink:href="#DejaVuSans-32" transform="translate(320.507812 0)"/>
      <use xlink:href="#DejaVuSans-36" transform="translate(384.130859 0)"/>
      <use xlink:href="#DejaVuSans-38" transform="translate(447.753906 0)"/>
      <use xlink:href="#DejaVuSans-37" transform="translate(511.376953 0)"/>
      <use xlink:href="#DejaVuSans-2f" transform="translate(575 0)"/>
      <use xlink:href="#DejaVuSans-31" transform="translate(608.691406 0)"/>
      <use xlink:href="#DejaVuSans-31" transform="translate(672.314453 0)"/>
     </g>
    </g>
   </g>
   <g id="text_10">
    <g clip-path="url(#p834c944b5a)">
     <!-- III. ÚS 84/94 -->
     <g transform="translate(263.362702 315.374068) scale(0.08 -0.08)">
      <use xlink:href="#DejaVuSans-49"/>
      <use xlink:href="#DejaVuSans-49" transform="translate(29.492188 0)"/>
      <use xlink:href="#DejaVuSans-49" transform="translate(58.984375 0)"/>
      <use xlink:href="#DejaVuSans-2e" transform="translate(88.476562 0)"/>
      <use xlink:href="#DejaVuSans-20" transform="translate(120.263672 0)"/>
      <use xlink:href="#DejaVuSans-da" transform="translate(152.050781 0)"/>
      <use xlink:href="#DejaVuSans-53" transform="translate(225.244141 0)"/>
      <use xlink:href="#DejaVuSans-20" transform="translate(288.720703 0)"/>
      <use xlink:href="#DejaVuSans-38" transform="translate(320.507812 0)"/>
      <use xlink:href="#DejaVuSans-34" transform="translate(384.130859 0)"/>
      <use xlink:href="#DejaVuSans-2f" transform="translate(447.753906 0)"/>
      <use xlink:href="#DejaVuSans-39" transform="translate(481.445312 0)"/>
      <use xlink:href="#DejaVuSans-34" transform="translate(545.068359 0)"/>
     </g>
    </g>
   </g>
   <g id="text_11">
    <g clip-path="url(#p834c944b5a)">
     <!-- 8 Tdo 1055/2013 -->
     <g transform="translate(278.578515 555.628482) scale(0.08 -0.08)">
      <use xlink:href="#DejaVuSans-38"/>
      <use xlink:href="#DejaVuSans-20" transform="translate(63.623047 0)"/>
      <use xlink:href="#DejaVuSans-54" transform="translate(95.410156 0)"/>
      <use xlink:href="#DejaVuSans-64" transform="translate(156.494141 0)"/>
      <use xlink:href="#DejaVuSans-6f" transform="translate(219.970703 0)"/>
      <use xlink:href="#DejaVuSans-20" transform="translate(281.152344 0)"/>
      <use xlink:href="#DejaVuSans-31" transform="translate(312.939453 0)"/>
      <use xlink:href="#DejaVuSans-30" transform="translate(376.5625 0)"/>
      <use xlink:href="#DejaVuSans-35" transform="translate(440.185547 0)"/>
      <use xlink:href="#DejaVuSans-35" transform="translate(503.808594 0)"/>
      <use xlink:href="#DejaVuSans-2f" transform="translate(567.431641 0)"/>
      <use xlink:href="#DejaVuSans-32" transform="translate(601.123047 0)"/>
      <use xlink:href="#DejaVuSans-30" transform="translate(664.746094 0)"/>
      <use xlink:href="#DejaVuSans-31" transform="translate(728.369141 0)"/>
      <use xlink:href="#DejaVuSans-33" transform="translate(791.992188 0)"/>
     </g>
    </g>
   </g>
   <g id="text_12">
    <g clip-path="url(#p834c944b5a)">
     <!-- 8 Tdo 255/2025 -->
     <g transform="translate(269.10544 270.721701) scale(0.08 -0.08)">
      <use xlink:href="#DejaVuSans-38"/>
      <use xlink:href="#DejaVuSans-20" transform="translate(63.623047 0)"/>
      <use xlink:href="#DejaVuSans-54" transform="translate(95.410156 0)"/>
      <use xlink:href="#DejaVuSans-64" transform="translate(156.494141 0)"/>
      <use xlink:href="#DejaVuSans-6f" transform="translate(219.970703 0)"/>
      <use xlink:href="#DejaVuSans-20" transform="translate(281.152344 0)"/>
      <use xlink:href="#DejaVuSans-32" transform="translate(312.939453 0)"/>
      <use xlink:href="#DejaVuSans-35" transform="translate(376.5625 0)"/>
      <use xlink:href="#DejaVuSans-35" transform="translate(440.185547 0)"/>
      <use xlink:href="#DejaVuSans-2f" transform="translate(503.808594 0)"/>
      <use xlink:href="#DejaVuSans-32" transform="translate(537.5 0)"/>
      <use xlink:href="#DejaVuSans-30" transform="translate(601.123047 0)"/>
      <use xlink:href="#DejaVuSans-32" transform="translate(664.746094 0)"/>
      <use xlink:href="#DejaVuSans-35" transform="translate(728.369141 0)"/>
     </g>
    </g>
   </g>
   <g id="text_13">
    <!-- Citation ego network around the most cited decision -->
    <g transform="translate(199.081687 16.318125) scale(0.12 -0.12)">
     <defs>
      <path id="DejaVuSans-43" d="M 4122 4306 
L 4122 3641 
Q 3803 3938 3442 4084 
Q 3081 4231 2675 4231 
Q 1875 4231 1450 3742 
Q 1025 3253 1025 2328 
Q 1025 1406 1450 917 
Q 1875 428 2675 428 
Q 3081 428 3442 575 
Q 3803 722 4122 1019 
L 4122 359 
Q 3791 134 3420 21 
Q 3050 -91 2638 -91 
Q 1578 -91 968 557 
Q 359 1206 359 2328 
Q 359 3453 968 4101 
Q 1578 4750 2638 4750 
Q 3056 4750 3426 4639 
Q 3797 4528 4122 4306 
z
" transform="scale(0.015625)"/>
      <path id="DejaVuSans-69" d="M 603 3500 
L 1178 3500 
L 1178 0 
L 603 0 
L 603 3500 
z
M 603 4863 
L 1178 4863 
L 1178 4134 
L 603 4134 
L 603 4863 
z
" transform="scale(0.015625)"/>
      <path id="DejaVuSans-74" d="M 1172 4494 
L 1172 3500 
L 2356 3500 
L 2356 3053 
L 1172 3053 
L 1172 1153 
Q 1172 725 1289 603 
Q 1406 481 1766 481 
L 2356 481 
L 2356 0 
L 1766 0 
Q 1100 0 847 248 
Q 594 497 594 1153 
L 594 3053 
L 172 3053 
L 172 3500 
L 594 3500 
L 594 4494 
L 1172 4494 
z
" transform="scale(0.015625)"/>
      <path id="DejaVuSans-61" d="M 2194 1759 
Q 1497 1759 1228 1600 
Q 959 1441 959 1056 
Q 959 750 1161 570 
Q 1363 391 1709 391 
Q 2188 391 2477 730 
Q 2766 1069 2766 1631 
L 2766 1759 
L 2194 1759 
z
M 3341 1997 
L 3341 0 
L 2766 0 
L 2766 531 
Q 2569 213 2275 61 
Q 1981 -91 1556 -91 
Q 1019 -91 701 211 
Q 384 513 384 1019 
Q 384 1609 779 1909 
Q 1175 2209 1959 2209 
L 2766 2209 
L 2766 2266 
Q 2766 2663 2505 2880 
Q 2244 3097 1772 3097 
Q 1472 3097 1187 3025 
Q 903 2953 641 2809 
L 641 3341 
Q 956 3463 1253 3523 
Q 1550 3584 1831 3584 
Q 2591 3584 2966 3190 
Q 3341 2797 3341 1997 
z
" transform="scale(0.015625)"/>
      <path id="DejaVuSans-6e" d="M 3513 2113 
L 3513 0 
L 2938 0 
L 2938 2094 
Q 2938 2591 2744 2837 
Q 2550 3084 2163 3084 
Q 1697 3084 1428 2787 
Q 1159 2491 1159 1978 
L 1159 0 
L 581 0 
L 581 3500 
L 1159 3500 
L 1159 2956 
Q 1366 3272 1645 3428 
Q 1925 3584 2291 3584 
Q 2894 3584 3203 3211 
Q 3513 2838 3513 2113 
z
" transform="scale(0.015625)"/>
      <path id="DejaVuSans-65" d="M 3597 1894 
L 3597 1613 
L 953 1613 
Q 991 1019 1311 708 
Q 1631 397 2203 397 
Q 2534 397 2845 478 
Q 3156 559 3463 722 
L 3463 178 
Q 3153 47 2828 -22 
Q 2503 -91 2169 -91 
Q 1331 -91 842 396 
Q 353 884 353 1716 
Q 353 2575 817 3079 
Q 1281 3584 2069 3584 
Q 2775 3584 3186 3129 
Q 3597 2675 3597 1894 
z
M 3022 2063 
Q 3016 2534 2758 2815 
Q 2500 3097 2075 3097 
Q 1594 3097 1305 2825 
Q 1016 2553 972 2059 
L 3022 2063 
z
" transform="scale(0.015625)"/>
      <path id="DejaVuSans-67" d="M 2906 1791 
Q 2906 2416 2648 2759 
Q 2391 3103 1925 3103 
Q 1463 3103 1205 2759 
Q 947 2416 947 1791 
Q 947 1169 1205 825 
Q 1463 481 1925 481 
Q 2391 481 2648 825 
Q 2906 1169 2906 1791 
z
M 3481 434 
Q 3481 -459 3084 -895 
Q 2688 -1331 1869 -1331 
Q 1566 -1331 1297 -1286 
Q 1028 -1241 775 -1147 
L 775 -588 
Q 1028 -725 1275 -790 
Q 1522 -856 1778 -856 
Q 2344 -856 2625 -561 
Q 2906 -266 2906 331 
L 2906 616 
Q 2728 306 2450 153 
Q 2172 0 1784 0 
Q 1141 0 747 490 
Q 353 981 353 1791 
Q 353 2603 747 3093 
Q 1141 3584 1784 3584 
Q 2172 3584 2450 3431 
Q 2728 3278 2906 2969 
L 2906 3500 
L 3481 3500 
L 3481 434 
z
" transform="scale(0.015625)"/>
      <path id="DejaVuSans-77" d="M 269 3500 
L 844 3500 
L 1563 769 
L 2278 3500 
L 2956 3500 
L 3675 769 
L 4391 3500 
L 4966 3500 
L 4050 0 
L 3372 0 
L 2619 2869 
L 1863 0 
L 1184 0 
L 269 3500 
z
" transform="scale(0.015625)"/>
      <path id="DejaVuSans-72" d="M 2631 2963 
Q 2534 3019 2420 3045 
Q 2306 3072 2169 3072 
Q 1681 3072 1420 2755 
Q 1159 2438 1159 1844 
L 1159 0 
L 581 0 
L 581 3500 
L 1159 3500 
L 1159 2956 
Q 1341 3275 1631 3429 
Q 1922 3584 2338 3584 
Q 2397 3584 2469 3576 
Q 2541 3569 2628 3553 
L 2631 2963 
z
" transform="scale(0.015625)"/>
      <path id="DejaVuSans-6b" d="M 581 4863 
L 1159 4863 
L 1159 1991 
L 2875 3500 
L 3609 3500 
L 1753 1863 
L 3688 0 
L 2938 0 
L 1159 1709 
L 1159 0 
L 581 0 
L 581 4863 
z
" transform="scale(0.015625)"/>
      <path id="DejaVuSans-75" d="M 544 1381 
L 544 3500 
L 1119 3500 
L 1119 1403 
Q 1119 906 1312 657 
Q 1506 409 1894 409 
Q 2359 409 2629 706 
Q 2900 1003 2900 1516 
L 2900 3500 
L 3475 3500 
L 3475 0 
L 2900 0 
L 2900 538 
Q 2691 219 2414 64 
Q 2138 -91 1772 -91 
Q 1169 -91 856 284 
Q 544 659 544 1381 
z
M 1991 3584 
L 1991 3584 
z
" transform="scale(0.015625)"/>
      <path id="DejaVuSans-68" d="M 3513 2113 
L 3513 0 
L 2938 0 
L 2938 2094 
Q 2938 2591 2744 2837 
Q 2550 3084 2163 3084 
Q 1697 3084 1428 2787 
Q 1159 2491 1159 1978 
L 1159 0 
L 581 0 
L 581 4863 
L 1159 4863 
L 1159 2956 
Q 1366 3272 1645 3428 
Q 1925 3584 2291 3584 
Q 2894 3584 3203 3211 
Q 3513 2838 3513 2113 
z
" transform="scale(0.015625)"/>
      <path id="DejaVuSans-6d" d="M 3328 2828 
Q 3544 3216 3844 3400 
Q 4144 3584 4550 3584 
Q 5097 3584 5394 3201 
Q 5691 2819 5691 2113 
L 5691 0 
L 5113 0 
L 5113 2094 
Q 5113 2597 4934 2840 
Q 4756 3084 4391 3084 
Q 3944 3084 3684 2787 
Q 3425 2491 3425 1978 
L 3425 0 
L 2847 0 
L 2847 2094 
Q 2847 2600 2669 2842 
Q 2491 3084 2119 3084 
Q 1678 3084 1418 2786 
Q 1159 2488 1159 1978 
L 1159 0 
L 581 0 
L 581 3500 
L 1159 3500 
L 1159 2956 
Q 1356 3278 1631 3431 
Q 1906 3584 2284 3584 
Q 2666 3584 2933 3390 
Q 3200 3197 3328 2828 
z
" transform="scale(0.015625)"/>
      <path id="DejaVuSans-73" d="M 2834 3397 
L 2834 2853 
Q 2591 2978 2328 3040 
Q 2066 3103 1784 3103 
Q 1356 3103 1142 2972 
Q 928 2841 928 2578 
Q 928 2378 1081 2264 
Q 1234 2150 1697 2047 
L 1894 2003 
Q 2506 1872 2764 1633 
Q 3022 1394 3022 966 
Q 3022 478 2636 193 
Q 2250 -91 1575 -91 
Q 1294 -91 989 -36 
Q 684 19 347 128 
L 347 722 
Q 666 556 975 473 
Q 1284 391 1588 391 
Q 1994 391 2212 530 
Q 2431 669 2431 922 
Q 2431 1156 2273 1281 
Q 2116 1406 1581 1522 
L 1381 1569 
Q 847 1681 609 1914 
Q 372 2147 372 2553 
Q 372 3047 722 3315 
Q 1072 3584 1716 3584 
Q 2034 3584 2315 3537 
Q 2597 3491 2834 3397 
z
" transform="scale(0.015625)"/>
      <path id="DejaVuSans-63" d="M 3122 3366 
L 3122 2828 
Q 2878 2963 2633 3030 
Q 2388 3097 2138 3097 
Q 1578 3097 1268 2742 
Q 959 2388 959 1747 
Q 959 1106 1268 751 
Q 1578 397 2138 397 
Q 2388 397 2633 464 
Q 2878 531 3122 666 
L 3122 134 
Q 2881 22 2623 -34 
Q 2366 -91 2075 -91 
Q 1284 -91 818 406 
Q 353 903 353 1747 
Q 353 2603 823 3093 
Q 1294 3584 2113 3584 
Q 2378 3584 2631 3529 
Q 2884 3475 3122 3366 
z
" transform="scale(0.015625)"/>
     </defs>
     <use xlink:href="#DejaVuSans-43"/>
     <use xlink:href="#DejaVuSans-69" transform="translate(69.824219 0)"/>
     <use xlink:href="#DejaVuSans-74" transform="translate(97.607422 0)"/>
     <use xlink:href="#DejaVuSans-61" transform="translate(136.816406 0)"/>
     <use xlink:href="#DejaVuSans-74" transform="translate(198.095703 0)"/>
     <use xlink:href="#DejaVuSans-69" transform="translate(237.304688 0)"/>
     <use xlink:href="#DejaVuSans-6f" transform="translate(265.087891 0)"/>
     <use xlink:href="#DejaVuSans-6e" transform="translate(326.269531 0)"/>
     <use xlink:href="#DejaVuSans-20" transform="translate(389.648438 0)"/>
     <use xlink:href="#DejaVuSans-65" transform="translate(421.435547 0)"/>
     <use xlink:href="#DejaVuSans-67" transform="translate(482.958984 0)"/>
     <use xlink:href="#DejaVuSans-6f" transform="translate(546.435547 0)"/>
     <use xlink:href="#DejaVuSans-20" transform="translate(607.617188 0)"/>
     <use xlink:href="#DejaVuSans-6e" transform="translate(639.404297 0)"/>
     <use xlink:href="#DejaVuSans-65" transform="translate(702.783203 0)"/>
     <use xlink:href="#DejaVuSans-74" transform="translate(764.306641 0)"/>
     <use xlink:href="#DejaVuSans-77" transform="translate(803.515625 0)"/>
     <use xlink:href="#DejaVuSans-6f" transform="translate(885.302734 0)"/>
     <use xlink:href="#DejaVuSans-72" transform="translate(946.484375 0)"/>
     <use xlink:href="#DejaVuSans-6b" transform="translate(987.597656 0)"/>
     <use xlink:href="#DejaVuSans-20" transform="translate(1045.507812 0)"/>
     <use xlink:href="#DejaVuSans-61" transform="translate(1077.294922 0)"/>
     <use xlink:href="#DejaVuSans-72" transform="translate(1138.574219 0)"/>
     <use xlink:href="#DejaVuSans-6f" transform="translate(1177.4375 0)"/>
     <use xlink:href="#DejaVuSans-75" transform="translate(1238.619141 0)"/>
     <use xlink:href="#DejaVuSans-6e" transform="translate(1301.998047 0)"/>
     <use xlink:href="#DejaVuSans-64" transform="translate(1365.376953 0)"/>
     <use xlink:href="#DejaVuSans-20" transform="translate(1428.853516 0)"/>
     <use xlink:href="#DejaVuSans-74" transform="translate(1460.640625 0)"/>
     <use xlink:href="#DejaVuSans-68" transform="translate(1499.849609 0)"/>
     <use xlink:href="#DejaVuSans-65" transform="translate(1563.228516 0)"/>
     <use xlink:href="#DejaVuSans-20" transform="translate(1624.751953 0)"/>
     <use xlink:href="#DejaVuSans-6d" transform="translate(1656.539062 0)"/>
     <use xlink:href="#DejaVuSans-6f" transform="translate(1753.951172 0)"/>
     <use xlink:href="#DejaVuSans-73" transform="translate(1815.132812 0)"/>
     <use xlink:href="#DejaVuSans-74" transform="translate(1867.232422 0)"/>
     <use xlink:href="#DejaVuSans-20" transform="translate(1906.441406 0)"/>
     <use xlink:href="#DejaVuSans-63" transform="translate(1938.228516 0)"/>
     <use xlink:href="#DejaVuSans-69" transform="translate(1993.208984 0)"/>
     <use xlink:href="#DejaVuSans-74" transform="translate(2020.992188 0)"/>
     <use xlink:href="#DejaVuSans-65" transform="translate(2060.201172 0)"/>
     <use xlink:href="#DejaVuSans-64" transform="translate(2121.724609 0)"/>
     <use xlink:href="#DejaVuSans-20" transform="translate(2185.201172 0)"/>
     <use xlink:href="#DejaVuSans-64" transform="translate(2216.988281 0)"/>
     <use xlink:href="#DejaVuSans-65" transform="translate(2280.464844 0)"/>
     <use xlink:href="#DejaVuSans-63" transform="translate(2341.988281 0)"/>
     <use xlink:href="#DejaVuSans-69" transform="translate(2396.96875 0)"/>
     <use xlink:href="#DejaVuSans-73" transform="translate(2424.751953 0)"/>
     <use xlink:href="#DejaVuSans-69" transform="translate(2476.851562 0)"/>
     <use xlink:href="#DejaVuSans-6f" transform="translate(2504.634766 0)"/>
     <use xlink:href="#DejaVuSans-6e" transform="translate(2565.816406 0)"/>
    </g>
   </g>
   <g id="legend_1">
    <g id="patch_13">
     <path d="M 715.45664 350.995312 
L 847.770702 350.995312 
Q 849.770702 350.995312 849.770702 348.995312 
L 849.770702 305.960937 
Q 849.770702 303.960937 847.770702 303.960937 
L 715.45664 303.960937 
Q 713.45664 303.960937 713.45664 305.960937 
L 713.45664 348.995312 
Q 713.45664 350.995312 715.45664 350.995312 
z
" style="fill: #ffffff; opacity: 0.8; stroke: #cccccc; stroke-linejoin: miter"/>
    </g>
    <g id="text_14">
     <!-- Institution -->
     <g transform="translate(756.309765 315.559375) scale(0.1 -0.1)">
      <use xlink:href="#DejaVuSans-49"/>
      <use xlink:href="#DejaVuSans-6e" transform="translate(29.492188 0)"/>
      <use xlink:href="#DejaVuSans-73" transform="translate(92.871094 0)"/>
      <use xlink:href="#DejaVuSans-74" transform="translate(144.970703 0)"/>
      <use xlink:href="#DejaVuSans-69" transform="translate(184.179688 0)"/>
      <use xlink:href="#DejaVuSans-74" transform="translate(211.962891 0)"/>
      <use xlink:href="#DejaVuSans-75" transform="translate(251.171875 0)"/>
      <use xlink:href="#DejaVuSans-74" transform="translate(314.550781 0)"/>
      <use xlink:href="#DejaVuSans-69" transform="translate(353.759766 0)"/>
      <use xlink:href="#DejaVuSans-6f" transform="translate(381.542969 0)"/>
      <use xlink:href="#DejaVuSans-6e" transform="translate(442.724609 0)"/>
     </g>
    </g>
    <g id="patch_14">
     <path d="M 717.45664 330.2375 
L 737.45664 330.2375 
L 737.45664 323.2375 
L 717.45664 323.2375 
z
" style="fill: #88a8cf"/>
    </g>
    <g id="text_15">
     <!-- Supreme Court -->
     <g transform="translate(745.45664 330.2375) scale(0.1 -0.1)">
      <defs>
       <path id="DejaVuSans-70" d="M 1159 525 
L 1159 -1331 
L 581 -1331 
L 581 3500 
L 1159 3500 
L 1159 2969 
Q 1341 3281 1617 3432 
Q 1894 3584 2278 3584 
Q 2916 3584 3314 3078 
Q 3713 2572 3713 1747 
Q 3713 922 3314 415 
Q 2916 -91 2278 -91 
Q 1894 -91 1617 61 
Q 1341 213 1159 525 
z
M 3116 1747 
Q 3116 2381 2855 2742 
Q 2594 3103 2138 3103 
Q 1681 3103 1420 2742 
Q 1159 2381 1159 1747 
Q 1159 1113 1420 752 
Q 1681 391 2138 391 
Q 2594 391 2855 752 
Q 3116 1113 3116 1747 
z
" transform="scale(0.015625)"/>
      </defs>
      <use xlink:href="#DejaVuSans-53"/>
      <use xlink:href="#DejaVuSans-75" transform="translate(63.476562 0)"/>
      <use xlink:href="#DejaVuSans-70" transform="translate(126.855469 0)"/>
      <use xlink:href="#DejaVuSans-72" transform="translate(190.332031 0)"/>
      <use xlink:href="#DejaVuSans-65" transform="translate(229.195312 0)"/>
      <use xlink:href="#DejaVuSans-6d" transform="translate(290.71875 0)"/>
      <use xlink:href="#DejaVuSans-65" transform="translate(388.130859 0)"/>
      <use xlink:href="#DejaVuSans-20" transform="translate(449.654297 0)"/>
      <use xlink:href="#DejaVuSans-43" transform="translate(481.441406 0)"/>
      <use xlink:href="#DejaVuSans-6f" transform="translate(551.265625 0)"/>
      <use xlink:href="#DejaVuSans-75" transform="translate(612.447266 0)"/>
      <use xlink:href="#DejaVuSans-72" transform="translate(675.826172 0)"/>
      <use xlink:href="#DejaVuSans-74" transform="translate(716.939453 0)"/>
     </g>
    </g>
    <g id="patch_15">
     <path d="M 717.45664 344.915625 
L 737.45664 344.915625 
L 737.45664 337.915625 
L 717.45664 337.915625 
z
" style="fill: #f5b878"/>
    </g>
    <g id="text_16">
     <!-- Constitutional Court -->
     <g transform="translate(745.45664 344.915625) scale(0.1 -0.1)">
      <defs>
       <path id="DejaVuSans-6c" d="M 603 4863 
L 1178 4863 
L 1178 0 
L 603 0 
L 603 4863 
z
" transform="scale(0.015625)"/>
      </defs>
      <use xlink:href="#DejaVuSans-43"/>
      <use xlink:href="#DejaVuSans-6f" transform="translate(69.824219 0)"/>
      <use xlink:href="#DejaVuSans-6e" transform="translate(131.005859 0)"/>
      <use xlink:href="#DejaVuSans-73" transform="translate(194.384766 0)"/>
      <use xlink:href="#DejaVuSans-74" transform="translate(246.484375 0)"/>
      <use xlink:href="#DejaVuSans-69" transform="translate(285.693359 0)"/>
      <use xlink:href="#DejaVuSans-74" transform="translate(313.476562 0)"/>
      <use xlink:href="#DejaVuSans-75" transform="translate(352.685547 0)"/>
      <use xlink:href="#DejaVuSans-74" transform="translate(416.064453 0)"/>
      <use xlink:href="#DejaVuSans-69" transform="translate(455.273438 0)"/>
      <use xlink:href="#DejaVuSans-6f" transform="translate(483.056641 0)"/>
      <use xlink:href="#DejaVuSans-6e" transform="translate(544.238281 0)"/>
      <use xlink:href="#DejaVuSans-61" transform="translate(607.617188 0)"/>
      <use xlink:href="#DejaVuSans-6c" transform="translate(668.896484 0)"/>
      <use xlink:href="#DejaVuSans-20" transform="translate(696.679688 0)"/>
      <use xlink:href="#DejaVuSans-43" transform="translate(728.466797 0)"/>
      <use xlink:href="#DejaVuSans-6f" transform="translate(798.291016 0)"/>
      <use xlink:href="#DejaVuSans-75" transform="translate(859.472656 0)"/>
      <use xlink:href="#DejaVuSans-72" transform="translate(922.851562 0)"/>
      <use xlink:href="#DejaVuSans-74" transform="translate(963.964844 0)"/>
     </g>
    </g>
   </g>
  </g>
 </g>
 <defs>
  <clipPath id="p834c944b5a">
   <rect x="7.2" y="22.318125" width="699.264" height="610.32"/>
  </clipPath>
 </defs>
</svg>
