<?xml version="1.0" encoding="utf-8" standalone="no"?>
<!DOCTYPE svg PUBLIC "-//W3C//DTD SVG 1.1//EN"
  "http://www.w3.org/Graphics/SVG/1.1/DTD/svg11.dtd">
<svg xmlns:xlink="http://www.w3.org/1999/xlink" width="871.273125pt" height="661.642031pt" viewBox="0 0 871.273125 661.642031" xmlns="http://www.w3.org/2000/svg" version="1.1">
 <metadata>
  <rdf:RDF xmlns:dc="http://purl.org/dc/elements/1.1/" xmlns:cc="http://creativecommons.org/ns#" xmlns:rdf="http://www.w3.org/1999/02/22-rdf-syntax-ns#">
   <cc:Work>
    <dc:type rdf:resource="http://purl.org/dc/dcmitype/StillImage"/>
    <dc:date>2026-04-09T14:24:37.703304</dc:date>
    <dc:format>image/svg+xml</dc:format>
    <dc:creator>
     <cc:Agent>
      <dc:title>Matplotlib v3.10.8, https://matplotlib.org/</dc:title>
     </cc:Agent>
    </dc:creator>
   </cc:Work>
  </rdf:RDF>
 </metadata>
 <defs>
  <style type="text/css">*{stroke-linejoin: round; stroke-linecap: butt}</style>
 </defs>
 <g id="figure_1">
  <g id="patch_1">
   <path d="M 0 661.642031 
L 871.273125 661.642031 
L 871.273125 0 
L 0 0 
z
" style="fill: #ffffff"/>
  </g>
  <g id="axes_1">
   <g id="patch_2">
    <path d="M 221.903125 623.117969 
L 864.073125 623.117969 
L 864.073125 29.077969 
L 221.903125 29.077969 
z
" style="fill: #ffffff"/>
   </g>
   <g id="matplotlib.axis_1">
    <g id="xtick_1">
     <g id="line2d_1">
      <path d="M 221.903125 623.117969 
L 221.903125 29.077969 
" clip-path="url(#p6e9322731b)" style="fill: none; stroke: #d9d9d9; stroke-opacity: 0.7; stroke-width: 0.6; stroke-linecap: square"/>
     </g>
     <g id="line2d_2">
      <defs>
       <path id="m1a0fa418dc" d="M 0 0 
L 0 3.5 
" style="stroke: #000000; stroke-width: 0.8"/>
      </defs>
      <g>
       <use xlink:href="#m1a0fa418dc" x="221.903125" y="623.117969" style="stroke: #000000; stroke-width: 0.8"/>
      </g>
     </g>
     <g id="text_1">
      <!-- 0 -->
      <g transform="translate(218.721875 637.716406) scale(0.1 -0.1)">
       <defs>
        <path id="DejaVuSans-30" d="M 2034 4250 
Q 1547 4250 1301 3770 
Q 1056 3291 1056 2328 
Q 1056 1369 1301 889 
Q 1547 409 2034 409 
Q 2525 409 2770 889 
Q 3016 1369 3016 2328 
Q 3016 3291 2770 3770 
Q 2525 4250 2034 4250 
z
M 2034 4750 
Q 2819 4750 3233 4129 
Q 3647 3509 3647 2328 
Q 3647 1150 3233 529 
Q 2819 -91 2034 -91 
Q 1250 -91 836 529 
Q 422 1150 422 2328 
Q 422 3509 836 4129 
Q 1250 4750 2034 4750 
z
" transform="scale(0.015625)"/>
       </defs>
       <use xlink:href="#DejaVuSans-30"/>
      </g>
     </g>
    </g>
    <g id="xtick_2">
     <g id="line2d_3">
      <path d="M 294.107704 623.117969 
L 294.107704 29.077969 
" clip-path="url(#p6e9322731b)" style="fill: none; stroke: #d9d9d9; stroke-opacity: 0.7; stroke-width: 0.6; stroke-linecap: square"/>
     </g>
     <g id="line2d_4">
      <g>
       <use xlink:href="#m1a0fa418dc" x="294.107704" y="623.117969" style="stroke: #000000; stroke-width: 0.8"/>
      </g>
     </g>
     <g id="text_2">
      <!-- 200 000 -->
      <g transform="translate(273.431142 637.716406) scale(0.1 -0.1)">
       <defs>
        <path id="DejaVuSans-32" d="M 1228 531 
L 3431 531 
L 3431 0 
L 469 0 
L 469 531 
Q 828 903 1448 1529 
Q 2069 2156 2228 2338 
Q 2531 2678 2651 2914 
Q 2772 3150 2772 3378 
Q 2772 3750 2511 3984 
Q 2250 4219 1831 4219 
Q 1534 4219 1204 4116 
Q 875 4013 500 3803 
L 500 4441 
Q 881 4594 1212 4672 
Q 1544 4750 1819 4750 
Q 2544 4750 2975 4387 
Q 3406 4025 3406 3419 
Q 3406 3131 3298 2873 
Q 3191 2616 2906 2266 
Q 2828 2175 2409 1742 
Q 1991 1309 1228 531 
z
" transform="scale(0.015625)"/>
        <path id="DejaVuSans-20" transform="scale(0.015625)"/>
       </defs>
       <use xlink:href="#DejaVuSans-32"/>
       <use xlink:href="#DejaVuSans-30" transform="translate(63.623047 0)"/>
       <use xlink:href="#DejaVuSans-30" transform="translate(127.246094 0)"/>
       <use xlink:href="#DejaVuSans-20" transform="translate(190.869141 0)"/>
       <use xlink:href="#DejaVuSans-30" transform="translate(222.65625 0)"/>
       <use xlink:href="#DejaVuSans-30" transform="translate(286.279297 0)"/>
       <use xlink:href="#DejaVuSans-30" transform="translate(349.902344 0)"/>
      </g>
     </g>
    </g>
    <g id="xtick_3">
     <g id="line2d_5">
      <path d="M 366.312283 623.117969 
L 366.312283 29.077969 
" clip-path="url(#p6e9322731b)" style="fill: none; stroke: #d9d9d9; stroke-opacity: 0.7; stroke-width: 0.6; stroke-linecap: square"/>
     </g>
     <g id="line2d_6">
      <g>
       <use xlink:href="#m1a0fa418dc" x="366.312283" y="623.117969" style="stroke: #000000; stroke-width: 0.8"/>
      </g>
     </g>
     <g id="text_3">
      <!-- 400 000 -->
      <g transform="translate(345.635721 637.716406) scale(0.1 -0.1)">
       <defs>
        <path id="DejaVuSans-34" d="M 2419 4116 
L 825 1625 
L 2419 1625 
L 2419 4116 
z
M 2253 4666 
L 3047 4666 
L 3047 1625 
L 3713 1625 
L 3713 1100 
L 3047 1100 
L 3047 0 
L 2419 0 
L 2419 1100 
L 313 1100 
L 313 1709 
L 2253 4666 
z
" transform="scale(0.015625)"/>
       </defs>
       <use xlink:href="#DejaVuSans-34"/>
       <use xlink:href="#DejaVuSans-30" transform="translate(63.623047 0)"/>
       <use xlink:href="#DejaVuSans-30" transform="translate(127.246094 0)"/>
       <use xlink:href="#DejaVuSans-20" transform="translate(190.869141 0)"/>
       <use xlink:href="#DejaVuSans-30" transform="translate(222.65625 0)"/>
       <use xlink:href="#DejaVuSans-30" transform="translate(286.279297 0)"/>
       <use xlink:href="#DejaVuSans-30" transform="translate(349.902344 0)"/>
      </g>
     </g>
    </g>
    <g id="xtick_4">
     <g id="line2d_7">
      <path d="M 438.516863 623.117969 
L 438.516863 29.077969 
" clip-path="url(#p6e9322731b)" style="fill: none; stroke: #d9d9d9; stroke-opacity: 0.7; stroke-width: 0.6; stroke-linecap: square"/>
     </g>
     <g id="line2d_8">
      <g>
       <use xlink:href="#m1a0fa418dc" x="438.516863" y="623.117969" style="stroke: #000000; stroke-width: 0.8"/>
      </g>
     </g>
     <g id="text_4">
      <!-- 600 000 -->
      <g transform="translate(417.8403 637.716406) scale(0.1 -0.1)">
       <defs>
        <path id="DejaVuSans-36" d="M 2113 2584 
Q 1688 2584 1439 2293 
Q 1191 2003 1191 1497 
Q 1191 994 1439 701 
Q 1688 409 2113 409 
Q 2538 409 2786 701 
Q 3034 994 3034 1497 
Q 3034 2003 2786 2293 
Q 2538 2584 2113 2584 
z
M 3366 4563 
L 3366 3988 
Q 3128 4100 2886 4159 
Q 2644 4219 2406 4219 
Q 1781 4219 1451 3797 
Q 1122 3375 1075 2522 
Q 1259 2794 1537 2939 
Q 1816 3084 2150 3084 
Q 2853 3084 3261 2657 
Q 3669 2231 3669 1497 
Q 3669 778 3244 343 
Q 2819 -91 2113 -91 
Q 1303 -91 875 529 
Q 447 1150 447 2328 
Q 447 3434 972 4092 
Q 1497 4750 2381 4750 
Q 2619 4750 2861 4703 
Q 3103 4656 3366 4563 
z
" transform="scale(0.015625)"/>
       </defs>
       <use xlink:href="#DejaVuSans-36"/>
       <use xlink:href="#DejaVuSans-30" transform="translate(63.623047 0)"/>
       <use xlink:href="#DejaVuSans-30" transform="translate(127.246094 0)"/>
       <use xlink:href="#DejaVuSans-20" transform="translate(190.869141 0)"/>
       <use xlink:href="#DejaVuSans-30" transform="translate(222.65625 0)"/>
       <use xlink:href="#DejaVuSans-30" transform="translate(286.279297 0)"/>
       <use xlink:href="#DejaVuSans-30" transform="translate(349.902344 0)"/>
      </g>
     </g>
    </g>
    <g id="xtick_5">
     <g id="line2d_9">
      <path d="M 510.721442 623.117969 
L 510.721442 29.077969 
" clip-path="url(#p6e9322731b)" style="fill: none; stroke: #d9d9d9; stroke-opacity: 0.7; stroke-width: 0.6; stroke-linecap: square"/>
     </g>
     <g id="line2d_10">
      <g>
       <use xlink:href="#m1a0fa418dc" x="510.721442" y="623.117969" style="stroke: #000000; stroke-width: 0.8"/>
      </g>
     </g>
     <g id="text_5">
      <!-- 800 000 -->
      <g transform="translate(490.044879 637.716406) scale(0.1 -0.1)">
       <defs>
        <path id="DejaVuSans-38" d="M 2034 2216 
Q 1584 2216 1326 1975 
Q 1069 1734 1069 1313 
Q 1069 891 1326 650 
Q 1584 409 2034 409 
Q 2484 409 2743 651 
Q 3003 894 3003 1313 
Q 3003 1734 2745 1975 
Q 2488 2216 2034 2216 
z
M 1403 2484 
Q 997 2584 770 2862 
Q 544 3141 544 3541 
Q 544 4100 942 4425 
Q 1341 4750 2034 4750 
Q 2731 4750 3128 4425 
Q 3525 4100 3525 3541 
Q 3525 3141 3298 2862 
Q 3072 2584 2669 2484 
Q 3125 2378 3379 2068 
Q 3634 1759 3634 1313 
Q 3634 634 3220 271 
Q 2806 -91 2034 -91 
Q 1263 -91 848 271 
Q 434 634 434 1313 
Q 434 1759 690 2068 
Q 947 2378 1403 2484 
z
M 1172 3481 
Q 1172 3119 1398 2916 
Q 1625 2713 2034 2713 
Q 2441 2713 2670 2916 
Q 2900 3119 2900 3481 
Q 2900 3844 2670 4047 
Q 2441 4250 2034 4250 
Q 1625 4250 1398 4047 
Q 1172 3844 1172 3481 
z
" transform="scale(0.015625)"/>
       </defs>
       <use xlink:href="#DejaVuSans-38"/>
       <use xlink:href="#DejaVuSans-30" transform="translate(63.623047 0)"/>
       <use xlink:href="#DejaVuSans-30" transform="translate(127.246094 0)"/>
       <use xlink:href="#DejaVuSans-20" transform="translate(190.869141 0)"/>
       <use xlink:href="#DejaVuSans-30" transform="translate(222.65625 0)"/>
       <use xlink:href="#DejaVuSans-30" transform="translate(286.279297 0)"/>
       <use xlink:href="#DejaVuSans-30" transform="translate(349.902344 0)"/>
      </g>
     </g>
    </g>
    <g id="xtick_6">
     <g id="line2d_11">
      <path d="M 582.926021 623.117969 
L 582.926021 29.077969 
" clip-path="url(#p6e9322731b)" style="fill: none; stroke: #d9d9d9; stroke-opacity: 0.7; stroke-width: 0.6; stroke-linecap: square"/>
     </g>
     <g id="line2d_12">
      <g>
       <use xlink:href="#m1a0fa418dc" x="582.926021" y="623.117969" style="stroke: #000000; stroke-width: 0.8"/>
      </g>
     </g>
     <g id="text_6">
      <!-- 1 000 000 -->
      <g transform="translate(557.479146 637.716406) scale(0.1 -0.1)">
       <defs>
        <path id="DejaVuSans-31" d="M 794 531 
L 1825 531 
L 1825 4091 
L 703 3866 
L 703 4441 
L 1819 4666 
L 2450 4666 
L 2450 531 
L 3481 531 
L 3481 0 
L 794 0 
L 794 531 
z
" transform="scale(0.015625)"/>
       </defs>
       <use xlink:href="#DejaVuSans-31"/>
       <use xlink:href="#DejaVuSans-20" transform="translate(63.623047 0)"/>
       <use xlink:href="#DejaVuSans-30" transform="translate(95.410156 0)"/>
       <use xlink:href="#DejaVuSans-30" transform="translate(159.033203 0)"/>
       <use xlink:href="#DejaVuSans-30" transform="translate(222.65625 0)"/>
       <use xlink:href="#DejaVuSans-20" transform="translate(286.279297 0)"/>
       <use xlink:href="#DejaVuSans-30" transform="translate(318.066406 0)"/>
       <use xlink:href="#DejaVuSans-30" transform="translate(381.689453 0)"/>
       <use xlink:href="#DejaVuSans-30" transform="translate(445.3125 0)"/>
      </g>
     </g>
    </g>
    <g id="xtick_7">
     <g id="line2d_13">
      <path d="M 655.1306 623.117969 
L 655.1306 29.077969 
" clip-path="url(#p6e9322731b)" style="fill: none; stroke: #d9d9d9; stroke-opacity: 0.7; stroke-width: 0.6; stroke-linecap: square"/>
     </g>
     <g id="line2d_14">
      <g>
       <use xlink:href="#m1a0fa418dc" x="655.1306" y="623.117969" style="stroke: #000000; stroke-width: 0.8"/>
      </g>
     </g>
     <g id="text_7">
      <!-- 1 200 000 -->
      <g transform="translate(629.683725 637.716406) scale(0.1 -0.1)">
       <use xlink:href="#DejaVuSans-31"/>
       <use xlink:href="#DejaVuSans-20" transform="translate(63.623047 0)"/>
       <use xlink:href="#DejaVuSans-32" transform="translate(95.410156 0)"/>
       <use xlink:href="#DejaVuSans-30" transform="translate(159.033203 0)"/>
       <use xlink:href="#DejaVuSans-30" transform="translate(222.65625 0)"/>
       <use xlink:href="#DejaVuSans-20" transform="translate(286.279297 0)"/>
       <use xlink:href="#DejaVuSans-30" transform="translate(318.066406 0)"/>
       <use xlink:href="#DejaVuSans-30" transform="translate(381.689453 0)"/>
       <use xlink:href="#DejaVuSans-30" transform="translate(445.3125 0)"/>
      </g>
     </g>
    </g>
    <g id="xtick_8">
     <g id="line2d_15">
      <path d="M 727.33518 623.117969 
L 727.33518 29.077969 
" clip-path="url(#p6e9322731b)" style="fill: none; stroke: #d9d9d9; stroke-opacity: 0.7; stroke-width: 0.6; stroke-linecap: square"/>
     </g>
     <g id="line2d_16">
      <g>
       <use xlink:href="#m1a0fa418dc" x="727.33518" y="623.117969" style="stroke: #000000; stroke-width: 0.8"/>
      </g>
     </g>
     <g id="text_8">
      <!-- 1 400 000 -->
      <g transform="translate(701.888305 637.716406) scale(0.1 -0.1)">
       <use xlink:href="#DejaVuSans-31"/>
       <use xlink:href="#DejaVuSans-20" transform="translate(63.623047 0)"/>
       <use xlink:href="#DejaVuSans-34" transform="translate(95.410156 0)"/>
       <use xlink:href="#DejaVuSans-30" transform="translate(159.033203 0)"/>
       <use xlink:href="#DejaVuSans-30" transform="translate(222.65625 0)"/>
       <use xlink:href="#DejaVuSans-20" transform="translate(286.279297 0)"/>
       <use xlink:href="#DejaVuSans-30" transform="translate(318.066406 0)"/>
       <use xlink:href="#DejaVuSans-30" transform="translate(381.689453 0)"/>
       <use xlink:href="#DejaVuSans-30" transform="translate(445.3125 0)"/>
      </g>
     </g>
    </g>
    <g id="xtick_9">
     <g id="line2d_17">
      <path d="M 799.539759 623.117969 
L 799.539759 29.077969 
" clip-path="url(#p6e9322731b)" style="fill: none; stroke: #d9d9d9; stroke-opacity: 0.7; stroke-width: 0.6; stroke-linecap: square"/>
     </g>
     <g id="line2d_18">
      <g>
       <use xlink:href="#m1a0fa418dc" x="799.539759" y="623.117969" style="stroke: #000000; stroke-width: 0.8"/>
      </g>
     </g>
     <g id="text_9">
      <!-- 1 600 000 -->
      <g transform="translate(774.092884 637.716406) scale(0.1 -0.1)">
       <use xlink:href="#DejaVuSans-31"/>
       <use xlink:href="#DejaVuSans-20" transform="translate(63.623047 0)"/>
       <use xlink:href="#DejaVuSans-36" transform="translate(95.410156 0)"/>
       <use xlink:href="#DejaVuSans-30" transform="translate(159.033203 0)"/>
       <use xlink:href="#DejaVuSans-30" transform="translate(222.65625 0)"/>
       <use xlink:href="#DejaVuSans-20" transform="translate(286.279297 0)"/>
       <use xlink:href="#DejaVuSans-30" transform="translate(318.066406 0)"/>
       <use xlink:href="#DejaVuSans-30" transform="translate(381.689453 0)"/>
       <use xlink:href="#DejaVuSans-30" transform="translate(445.3125 0)"/>
      </g>
     </g>
    </g>
    <g id="text_10">
     <!-- Citation occurrences -->
     <g transform="translate(486.465313 652.154375) scale(0.11 -0.11)">
      <defs>
       <path id="DejaVuSans-43" d="M 4122 4306 
L 4122 3641 
Q 3803 3938 3442 4084 
Q 3081 4231 2675 4231 
Q 1875 4231 1450 3742 
Q 1025 3253 1025 2328 
Q 1025 1406 1450 917 
Q 1875 428 2675 428 
Q 3081 428 3442 575 
Q 3803 722 4122 1019 
L 4122 359 
Q 3791 134 3420 21 
Q 3050 -91 2638 -91 
Q 1578 -91 968 557 
Q 359 1206 359 2328 
Q 359 3453 968 4101 
Q 1578 4750 2638 4750 
Q 3056 4750 3426 4639 
Q 3797 4528 4122 4306 
z
" transform="scale(0.015625)"/>
       <path id="DejaVuSans-69" d="M 603 3500 
L 1178 3500 
L 1178 0 
L 603 0 
L 603 3500 
z
M 603 4863 
L 1178 4863 
L 1178 4134 
L 603 4134 
L 603 4863 
z
" transform="scale(0.015625)"/>
       <path id="DejaVuSans-74" d="M 1172 4494 
L 1172 3500 
L 2356 3500 
L 2356 3053 
L 1172 3053 
L 1172 1153 
Q 1172 725 1289 603 
Q 1406 481 1766 481 
L 2356 481 
L 2356 0 
L 1766 0 
Q 1100 0 847 248 
Q 594 497 594 1153 
L 594 3053 
L 172 3053 
L 172 3500 
L 594 3500 
L 594 4494 
L 1172 4494 
z
" transform="scale(0.015625)"/>
       <path id="DejaVuSans-61" d="M 2194 1759 
Q 1497 1759 1228 1600 
Q 959 1441 959 1056 
Q 959 750 1161 570 
Q 1363 391 1709 391 
Q 2188 391 2477 730 
Q 2766 1069 2766 1631 
L 2766 1759 
L 2194 1759 
z
M 3341 1997 
L 3341 0 
L 2766 0 
L 2766 531 
Q 2569 213 2275 61 
Q 1981 -91 1556 -91 
Q 1019 -91 701 211 
Q 384 513 384 1019 
Q 384 1609 779 1909 
Q 1175 2209 1959 2209 
L 2766 2209 
L 2766 2266 
Q 2766 2663 2505 2880 
Q 2244 3097 1772 3097 
Q 1472 3097 1187 3025 
Q 903 2953 641 2809 
L 641 3341 
Q 956 3463 1253 3523 
Q 1550 3584 1831 3584 
Q 2591 3584 2966 3190 
Q 3341 2797 3341 1997 
z
" transform="scale(0.015625)"/>
       <path id="DejaVuSans-6f" d="M 1959 3097 
Q 1497 3097 1228 2736 
Q 959 2375 959 1747 
Q 959 1119 1226 758 
Q 1494 397 1959 397 
Q 2419 397 2687 759 
Q 2956 1122 2956 1747 
Q 2956 2369 2687 2733 
Q 2419 3097 1959 3097 
z
M 1959 3584 
Q 2709 3584 3137 3096 
Q 3566 2609 3566 1747 
Q 3566 888 3137 398 
Q 2709 -91 1959 -91 
Q 1206 -91 779 398 
Q 353 888 353 1747 
Q 353 2609 779 3096 
Q 1206 3584 1959 3584 
z
" transform="scale(0.015625)"/>
       <path id="DejaVuSans-6e" d="M 3513 2113 
L 3513 0 
L 2938 0 
L 2938 2094 
Q 2938 2591 2744 2837 
Q 2550 3084 2163 3084 
Q 1697 3084 1428 2787 
Q 1159 2491 1159 1978 
L 1159 0 
L 581 0 
L 581 3500 
L 1159 3500 
L 1159 2956 
Q 1366 3272 1645 3428 
Q 1925 3584 2291 3584 
Q 2894 3584 3203 3211 
Q 3513 2838 3513 2113 
z
" transform="scale(0.015625)"/>
       <path id="DejaVuSans-63" d="M 3122 3366 
L 3122 2828 
Q 2878 2963 2633 3030 
Q 2388 3097 2138 3097 
Q 1578 3097 1268 2742 
Q 959 2388 959 1747 
Q 959 1106 1268 751 
Q 1578 397 2138 397 
Q 2388 397 2633 464 
Q 2878 531 3122 666 
L 3122 134 
Q 2881 22 2623 -34 
Q 2366 -91 2075 -91 
Q 1284 -91 818 406 
Q 353 903 353 1747 
Q 353 2603 823 3093 
Q 1294 3584 2113 3584 
Q 2378 3584 2631 3529 
Q 2884 3475 3122 3366 
z
" transform="scale(0.015625)"/>
       <path id="DejaVuSans-75" d="M 544 1381 
L 544 3500 
L 1119 3500 
L 1119 1403 
Q 1119 906 1312 657 
Q 1506 409 1894 409 
Q 2359 409 2629 706 
Q 2900 1003 2900 1516 
L 2900 3500 
L 3475 3500 
L 3475 0 
L 2900 0 
L 2900 538 
Q 2691 219 2414 64 
Q 2138 -91 1772 -91 
Q 1169 -91 856 284 
Q 544 659 544 1381 
z
M 1991 3584 
L 1991 3584 
z
" transform="scale(0.015625)"/>
       <path id="DejaVuSans-72" d="M 2631 2963 
Q 2534 3019 2420 3045 
Q 2306 3072 2169 3072 
Q 1681 3072 1420 2755 
Q 1159 2438 1159 1844 
L 1159 0 
L 581 0 
L 581 3500 
L 1159 3500 
L 1159 2956 
Q 1341 3275 1631 3429 
Q 1922 3584 2338 3584 
Q 2397 3584 2469 3576 
Q 2541 3569 2628 3553 
L 2631 2963 
z
" transform="scale(0.015625)"/>
       <path id="DejaVuSans-65" d="M 3597 1894 
L 3597 1613 
L 953 1613 
Q 991 1019 1311 708 
Q 1631 397 2203 397 
Q 2534 397 2845 478 
Q 3156 559 3463 722 
L 3463 178 
Q 3153 47 2828 -22 
Q 2503 -91 2169 -91 
Q 1331 -91 842 396 
Q 353 884 353 1716 
Q 353 2575 817 3079 
Q 1281 3584 2069 3584 
Q 2775 3584 3186 3129 
Q 3597 2675 3597 1894 
z
M 3022 2063 
Q 3016 2534 2758 2815 
Q 2500 3097 2075 3097 
Q 1594 3097 1305 2825 
Q 1016 2553 972 2059 
L 3022 2063 
z
" transform="scale(0.015625)"/>
       <path id="DejaVuSans-73" d="M 2834 3397 
L 2834 2853 
Q 2591 2978 2328 3040 
Q 2066 3103 1784 3103 
Q 1356 3103 1142 2972 
Q 928 2841 928 2578 
Q 928 2378 1081 2264 
Q 1234 2150 1697 2047 
L 1894 2003 
Q 2506 1872 2764 1633 
Q 3022 1394 3022 966 
Q 3022 478 2636 193 
Q 2250 -91 1575 -91 
Q 1294 -91 989 -36 
Q 684 19 347 128 
L 347 722 
Q 666 556 975 473 
Q 1284 391 1588 391 
Q 1994 391 2212 530 
Q 2431 669 2431 922 
Q 2431 1156 2273 1281 
Q 2116 1406 1581 1522 
L 1381 1569 
Q 847 1681 609 1914 
Q 372 2147 372 2553 
Q 372 3047 722 3315 
Q 1072 3584 1716 3584 
Q 2034 3584 2315 3537 
Q 2597 3491 2834 3397 
z
" transform="scale(0.015625)"/>
      </defs>
      <use xlink:href="#DejaVuSans-43"/>
      <use xlink:href="#DejaVuSans-69" transform="translate(69.824219 0)"/>
      <use xlink:href="#DejaVuSans-74" transform="translate(97.607422 0)"/>
      <use xlink:href="#DejaVuSans-61" transform="translate(136.816406 0)"/>
      <use xlink:href="#DejaVuSans-74" transform="translate(198.095703 0)"/>
      <use xlink:href="#DejaVuSans-69" transform="translate(237.304688 0)"/>
      <use xlink:href="#DejaVuSans-6f" transform="translate(265.087891 0)"/>
      <use xlink:href="#DejaVuSans-6e" transform="translate(326.269531 0)"/>
      <use xlink:href="#DejaVuSans-20" transform="translate(389.648438 0)"/>
      <use xlink:href="#DejaVuSans-6f" transform="translate(421.435547 0)"/>
      <use xlink:href="#DejaVuSans-63" transform="translate(482.617188 0)"/>
      <use xlink:href="#DejaVuSans-63" transform="translate(537.597656 0)"/>
      <use xlink:href="#DejaVuSans-75" transform="translate(592.578125 0)"/>
      <use xlink:href="#DejaVuSans-72" transform="translate(655.957031 0)"/>
      <use xlink:href="#DejaVuSans-72" transform="translate(695.320312 0)"/>
      <use xlink:href="#DejaVuSans-65" transform="translate(734.183594 0)"/>
      <use xlink:href="#DejaVuSans-6e" transform="translate(795.707031 0)"/>
      <use xlink:href="#DejaVuSans-63" transform="translate(859.085938 0)"/>
      <use xlink:href="#DejaVuSans-65" transform="translate(914.066406 0)"/>
      <use xlink:href="#DejaVuSans-73" transform="translate(975.589844 0)"/>
     </g>
    </g>
   </g>
   <g id="matplotlib.axis_2">
    <g id="ytick_1">
     <g id="line2d_19">
      <defs>
       <path id="m61282196c7" d="M 0 0 
L -3.5 0 
" style="stroke: #000000; stroke-width: 0.8"/>
      </defs>
      <g>
       <use xlink:href="#m61282196c7" x="221.903125" y="70.675364" style="stroke: #000000; stroke-width: 0.8"/>
      </g>
     </g>
     <g id="text_11">
      <!-- 99/1963 Sb. -->
      <g transform="translate(154.30625 69.435521) scale(0.1 -0.1)">
       <defs>
        <path id="DejaVuSans-39" d="M 703 97 
L 703 672 
Q 941 559 1184 500 
Q 1428 441 1663 441 
Q 2288 441 2617 861 
Q 2947 1281 2994 2138 
Q 2813 1869 2534 1725 
Q 2256 1581 1919 1581 
Q 1219 1581 811 2004 
Q 403 2428 403 3163 
Q 403 3881 828 4315 
Q 1253 4750 1959 4750 
Q 2769 4750 3195 4129 
Q 3622 3509 3622 2328 
Q 3622 1225 3098 567 
Q 2575 -91 1691 -91 
Q 1453 -91 1209 -44 
Q 966 3 703 97 
z
M 1959 2075 
Q 2384 2075 2632 2365 
Q 2881 2656 2881 3163 
Q 2881 3666 2632 3958 
Q 2384 4250 1959 4250 
Q 1534 4250 1286 3958 
Q 1038 3666 1038 3163 
Q 1038 2656 1286 2365 
Q 1534 2075 1959 2075 
z
" transform="scale(0.015625)"/>
        <path id="DejaVuSans-2f" d="M 1625 4666 
L 2156 4666 
L 531 -594 
L 0 -594 
L 1625 4666 
z
" transform="scale(0.015625)"/>
        <path id="DejaVuSans-33" d="M 2597 2516 
Q 3050 2419 3304 2112 
Q 3559 1806 3559 1356 
Q 3559 666 3084 287 
Q 2609 -91 1734 -91 
Q 1441 -91 1130 -33 
Q 819 25 488 141 
L 488 750 
Q 750 597 1062 519 
Q 1375 441 1716 441 
Q 2309 441 2620 675 
Q 2931 909 2931 1356 
Q 2931 1769 2642 2001 
Q 2353 2234 1838 2234 
L 1294 2234 
L 1294 2753 
L 1863 2753 
Q 2328 2753 2575 2939 
Q 2822 3125 2822 3475 
Q 2822 3834 2567 4026 
Q 2313 4219 1838 4219 
Q 1578 4219 1281 4162 
Q 984 4106 628 3988 
L 628 4550 
Q 988 4650 1302 4700 
Q 1616 4750 1894 4750 
Q 2613 4750 3031 4423 
Q 3450 4097 3450 3541 
Q 3450 3153 3228 2886 
Q 3006 2619 2597 2516 
z
" transform="scale(0.015625)"/>
        <path id="DejaVuSans-53" d="M 3425 4513 
L 3425 3897 
Q 3066 4069 2747 4153 
Q 2428 4238 2131 4238 
Q 1616 4238 1336 4038 
Q 1056 3838 1056 3469 
Q 1056 3159 1242 3001 
Q 1428 2844 1947 2747 
L 2328 2669 
Q 3034 2534 3370 2195 
Q 3706 1856 3706 1288 
Q 3706 609 3251 259 
Q 2797 -91 1919 -91 
Q 1588 -91 1214 -16 
Q 841 59 441 206 
L 441 856 
Q 825 641 1194 531 
Q 1563 422 1919 422 
Q 2459 422 2753 634 
Q 3047 847 3047 1241 
Q 3047 1584 2836 1778 
Q 2625 1972 2144 2069 
L 1759 2144 
Q 1053 2284 737 2584 
Q 422 2884 422 3419 
Q 422 4038 858 4394 
Q 1294 4750 2059 4750 
Q 2388 4750 2728 4690 
Q 3069 4631 3425 4513 
z
" transform="scale(0.015625)"/>
        <path id="DejaVuSans-62" d="M 3116 1747 
Q 3116 2381 2855 2742 
Q 2594 3103 2138 3103 
Q 1681 3103 1420 2742 
Q 1159 2381 1159 1747 
Q 1159 1113 1420 752 
Q 1681 391 2138 391 
Q 2594 391 2855 752 
Q 3116 1113 3116 1747 
z
M 1159 2969 
Q 1341 3281 1617 3432 
Q 1894 3584 2278 3584 
Q 2916 3584 3314 3078 
Q 3713 2572 3713 1747 
Q 3713 922 3314 415 
Q 2916 -91 2278 -91 
Q 1894 -91 1617 61 
Q 1341 213 1159 525 
L 1159 0 
L 581 0 
L 581 4863 
L 1159 4863 
L 1159 2969 
z
" transform="scale(0.015625)"/>
        <path id="DejaVuSans-2e" d="M 684 794 
L 1344 794 
L 1344 0 
L 684 0 
L 684 794 
z
" transform="scale(0.015625)"/>
       </defs>
       <use xlink:href="#DejaVuSans-39"/>
       <use xlink:href="#DejaVuSans-39" transform="translate(63.623047 0)"/>
       <use xlink:href="#DejaVuSans-2f" transform="translate(127.246094 0)"/>
       <use xlink:href="#DejaVuSans-31" transform="translate(160.9375 0)"/>
       <use xlink:href="#DejaVuSans-39" transform="translate(224.560547 0)"/>
       <use xlink:href="#DejaVuSans-36" transform="translate(288.183594 0)"/>
       <use xlink:href="#DejaVuSans-33" transform="translate(351.806641 0)"/>
       <use xlink:href="#DejaVuSans-20" transform="translate(415.429688 0)"/>
       <use xlink:href="#DejaVuSans-53" transform="translate(447.216797 0)"/>
       <use xlink:href="#DejaVuSans-62" transform="translate(510.693359 0)"/>
       <use xlink:href="#DejaVuSans-2e" transform="translate(574.169922 0)"/>
      </g>
      <!-- Občanský soudní řád -->
      <g transform="translate(110.089062 81.113333) scale(0.1 -0.1)">
       <defs>
        <path id="DejaVuSans-4f" d="M 2522 4238 
Q 1834 4238 1429 3725 
Q 1025 3213 1025 2328 
Q 1025 1447 1429 934 
Q 1834 422 2522 422 
Q 3209 422 3611 934 
Q 4013 1447 4013 2328 
Q 4013 3213 3611 3725 
Q 3209 4238 2522 4238 
z
M 2522 4750 
Q 3503 4750 4090 4092 
Q 4678 3434 4678 2328 
Q 4678 1225 4090 567 
Q 3503 -91 2522 -91 
Q 1538 -91 948 565 
Q 359 1222 359 2328 
Q 359 3434 948 4092 
Q 1538 4750 2522 4750 
z
" transform="scale(0.015625)"/>
        <path id="DejaVuSans-10d" d="M 3122 3366 
L 3122 2828 
Q 2878 2963 2633 3030 
Q 2388 3097 2138 3097 
Q 1578 3097 1268 2742 
Q 959 2388 959 1747 
Q 959 1106 1268 751 
Q 1578 397 2138 397 
Q 2388 397 2633 464 
Q 2878 531 3122 666 
L 3122 134 
Q 2881 22 2623 -34 
Q 2366 -91 2075 -91 
Q 1284 -91 818 406 
Q 353 903 353 1747 
Q 353 2603 823 3093 
Q 1294 3584 2113 3584 
Q 2378 3584 2631 3529 
Q 2884 3475 3122 3366 
z
M 1801 3944 
L 1035 5119 
L 1470 5119 
L 2032 4353 
L 2595 5119 
L 3029 5119 
L 2263 3944 
L 1801 3944 
z
" transform="scale(0.015625)"/>
        <path id="DejaVuSans-6b" d="M 581 4863 
L 1159 4863 
L 1159 1991 
L 2875 3500 
L 3609 3500 
L 1753 1863 
L 3688 0 
L 2938 0 
L 1159 1709 
L 1159 0 
L 581 0 
L 581 4863 
z
" transform="scale(0.015625)"/>
        <path id="DejaVuSans-fd" d="M 2059 -325 
Q 1816 -950 1584 -1140 
Q 1353 -1331 966 -1331 
L 506 -1331 
L 506 -850 
L 844 -850 
Q 1081 -850 1212 -737 
Q 1344 -625 1503 -206 
L 1606 56 
L 191 3500 
L 800 3500 
L 1894 763 
L 2988 3500 
L 3597 3500 
L 2059 -325 
z
M 2330 5119 
L 2952 5119 
L 1934 3944 
L 1455 3944 
L 2330 5119 
z
" transform="scale(0.015625)"/>
        <path id="DejaVuSans-64" d="M 2906 2969 
L 2906 4863 
L 3481 4863 
L 3481 0 
L 2906 0 
L 2906 525 
Q 2725 213 2448 61 
Q 2172 -91 1784 -91 
Q 1150 -91 751 415 
Q 353 922 353 1747 
Q 353 2572 751 3078 
Q 1150 3584 1784 3584 
Q 2172 3584 2448 3432 
Q 2725 3281 2906 2969 
z
M 947 1747 
Q 947 1113 1208 752 
Q 1469 391 1925 391 
Q 2381 391 2643 752 
Q 2906 1113 2906 1747 
Q 2906 2381 2643 2742 
Q 2381 3103 1925 3103 
Q 1469 3103 1208 2742 
Q 947 2381 947 1747 
z
" transform="scale(0.015625)"/>
        <path id="DejaVuSans-ed" d="M 1322 5119 
L 1944 5119 
L 926 3944 
L 447 3944 
L 1322 5119 
z
M 603 3500 
L 1178 3500 
L 1178 0 
L 603 0 
L 603 3500 
z
M 891 3584 
L 891 3584 
z
" transform="scale(0.015625)"/>
        <path id="DejaVuSans-159" d="M 2631 2963 
Q 2534 3019 2420 3045 
Q 2306 3072 2169 3072 
Q 1681 3072 1420 2755 
Q 1159 2438 1159 1844 
L 1159 0 
L 581 0 
L 581 3500 
L 1159 3500 
L 1159 2956 
Q 1341 3275 1631 3429 
Q 1922 3584 2338 3584 
Q 2397 3584 2469 3576 
Q 2541 3569 2628 3553 
L 2631 2963 
z
M 1457 3944 
L 691 5119 
L 1126 5119 
L 1688 4353 
L 2251 5119 
L 2685 5119 
L 1919 3944 
L 1457 3944 
z
" transform="scale(0.015625)"/>
        <path id="DejaVuSans-e1" d="M 2194 1759 
Q 1497 1759 1228 1600 
Q 959 1441 959 1056 
Q 959 750 1161 570 
Q 1363 391 1709 391 
Q 2188 391 2477 730 
Q 2766 1069 2766 1631 
L 2766 1759 
L 2194 1759 
z
M 3341 1997 
L 3341 0 
L 2766 0 
L 2766 531 
Q 2569 213 2275 61 
Q 1981 -91 1556 -91 
Q 1019 -91 701 211 
Q 384 513 384 1019 
Q 384 1609 779 1909 
Q 1175 2209 1959 2209 
L 2766 2209 
L 2766 2266 
Q 2766 2663 2505 2880 
Q 2244 3097 1772 3097 
Q 1472 3097 1187 3025 
Q 903 2953 641 2809 
L 641 3341 
Q 956 3463 1253 3523 
Q 1550 3584 1831 3584 
Q 2591 3584 2966 3190 
Q 3341 2797 3341 1997 
z
M 2290 5119 
L 2912 5119 
L 1894 3944 
L 1415 3944 
L 2290 5119 
z
" transform="scale(0.015625)"/>
       </defs>
       <use xlink:href="#DejaVuSans-4f"/>
       <use xlink:href="#DejaVuSans-62" transform="translate(78.710938 0)"/>
       <use xlink:href="#DejaVuSans-10d" transform="translate(142.1875 0)"/>
       <use xlink:href="#DejaVuSans-61" transform="translate(197.167969 0)"/>
       <use xlink:href="#DejaVuSans-6e" transform="translate(258.447266 0)"/>
       <use xlink:href="#DejaVuSans-73" transform="translate(321.826172 0)"/>
       <use xlink:href="#DejaVuSans-6b" transform="translate(373.925781 0)"/>
       <use xlink:href="#DejaVuSans-fd" transform="translate(428.210938 0)"/>
       <use xlink:href="#DejaVuSans-20" transform="translate(487.390625 0)"/>
       <use xlink:href="#DejaVuSans-73" transform="translate(519.177734 0)"/>
       <use xlink:href="#DejaVuSans-6f" transform="translate(571.277344 0)"/>
       <use xlink:href="#DejaVuSans-75" transform="translate(632.458984 0)"/>
       <use xlink:href="#DejaVuSans-64" transform="translate(695.837891 0)"/>
       <use xlink:href="#DejaVuSans-6e" transform="translate(759.314453 0)"/>
       <use xlink:href="#DejaVuSans-ed" transform="translate(822.693359 0)"/>
       <use xlink:href="#DejaVuSans-20" transform="translate(850.476562 0)"/>
       <use xlink:href="#DejaVuSans-159" transform="translate(882.263672 0)"/>
       <use xlink:href="#DejaVuSans-e1" transform="translate(923.376953 0)"/>
       <use xlink:href="#DejaVuSans-64" transform="translate(984.65625 0)"/>
      </g>
     </g>
    </g>
    <g id="ytick_2">
     <g id="line2d_20">
      <g>
       <use xlink:href="#m61282196c7" x="221.903125" y="107.164308" style="stroke: #000000; stroke-width: 0.8"/>
      </g>
     </g>
     <g id="text_12">
      <!-- 150/2002 Sb. -->
      <g transform="translate(147.94375 105.924464) scale(0.1 -0.1)">
       <defs>
        <path id="DejaVuSans-35" d="M 691 4666 
L 3169 4666 
L 3169 4134 
L 1269 4134 
L 1269 2991 
Q 1406 3038 1543 3061 
Q 1681 3084 1819 3084 
Q 2600 3084 3056 2656 
Q 3513 2228 3513 1497 
Q 3513 744 3044 326 
Q 2575 -91 1722 -91 
Q 1428 -91 1123 -41 
Q 819 9 494 109 
L 494 744 
Q 775 591 1075 516 
Q 1375 441 1709 441 
Q 2250 441 2565 725 
Q 2881 1009 2881 1497 
Q 2881 1984 2565 2268 
Q 2250 2553 1709 2553 
Q 1456 2553 1204 2497 
Q 953 2441 691 2322 
L 691 4666 
z
" transform="scale(0.015625)"/>
       </defs>
       <use xlink:href="#DejaVuSans-31"/>
       <use xlink:href="#DejaVuSans-35" transform="translate(63.623047 0)"/>
       <use xlink:href="#DejaVuSans-30" transform="translate(127.246094 0)"/>
       <use xlink:href="#DejaVuSans-2f" transform="translate(190.869141 0)"/>
       <use xlink:href="#DejaVuSans-32" transform="translate(224.560547 0)"/>
       <use xlink:href="#DejaVuSans-30" transform="translate(288.183594 0)"/>
       <use xlink:href="#DejaVuSans-30" transform="translate(351.806641 0)"/>
       <use xlink:href="#DejaVuSans-32" transform="translate(415.429688 0)"/>
       <use xlink:href="#DejaVuSans-20" transform="translate(479.052734 0)"/>
       <use xlink:href="#DejaVuSans-53" transform="translate(510.839844 0)"/>
       <use xlink:href="#DejaVuSans-62" transform="translate(574.316406 0)"/>
       <use xlink:href="#DejaVuSans-2e" transform="translate(637.792969 0)"/>
      </g>
      <!-- Zákon soudní řád správní -->
      <g transform="translate(87.957812 117.602277) scale(0.1 -0.1)">
       <defs>
        <path id="DejaVuSans-5a" d="M 359 4666 
L 4025 4666 
L 4025 4184 
L 1075 531 
L 4097 531 
L 4097 0 
L 288 0 
L 288 481 
L 3238 4134 
L 359 4134 
L 359 4666 
z
" transform="scale(0.015625)"/>
        <path id="DejaVuSans-70" d="M 1159 525 
L 1159 -1331 
L 581 -1331 
L 581 3500 
L 1159 3500 
L 1159 2969 
Q 1341 3281 1617 3432 
Q 1894 3584 2278 3584 
Q 2916 3584 3314 3078 
Q 3713 2572 3713 1747 
Q 3713 922 3314 415 
Q 2916 -91 2278 -91 
Q 1894 -91 1617 61 
Q 1341 213 1159 525 
z
M 3116 1747 
Q 3116 2381 2855 2742 
Q 2594 3103 2138 3103 
Q 1681 3103 1420 2742 
Q 1159 2381 1159 1747 
Q 1159 1113 1420 752 
Q 1681 391 2138 391 
Q 2594 391 2855 752 
Q 3116 1113 3116 1747 
z
" transform="scale(0.015625)"/>
        <path id="DejaVuSans-76" d="M 191 3500 
L 800 3500 
L 1894 563 
L 2988 3500 
L 3597 3500 
L 2284 0 
L 1503 0 
L 191 3500 
z
" transform="scale(0.015625)"/>
       </defs>
       <use xlink:href="#DejaVuSans-5a"/>
       <use xlink:href="#DejaVuSans-e1" transform="translate(68.505859 0)"/>
       <use xlink:href="#DejaVuSans-6b" transform="translate(129.785156 0)"/>
       <use xlink:href="#DejaVuSans-6f" transform="translate(184.070312 0)"/>
       <use xlink:href="#DejaVuSans-6e" transform="translate(245.251953 0)"/>
       <use xlink:href="#DejaVuSans-20" transform="translate(308.630859 0)"/>
       <use xlink:href="#DejaVuSans-73" transform="translate(340.417969 0)"/>
       <use xlink:href="#DejaVuSans-6f" transform="translate(392.517578 0)"/>
       <use xlink:href="#DejaVuSans-75" transform="translate(453.699219 0)"/>
       <use xlink:href="#DejaVuSans-64" transform="translate(517.078125 0)"/>
       <use xlink:href="#DejaVuSans-6e" transform="translate(580.554688 0)"/>
       <use xlink:href="#DejaVuSans-ed" transform="translate(643.933594 0)"/>
       <use xlink:href="#DejaVuSans-20" transform="translate(671.716797 0)"/>
       <use xlink:href="#DejaVuSans-159" transform="translate(703.503906 0)"/>
       <use xlink:href="#DejaVuSans-e1" transform="translate(744.617188 0)"/>
       <use xlink:href="#DejaVuSans-64" transform="translate(805.896484 0)"/>
       <use xlink:href="#DejaVuSans-20" transform="translate(869.373047 0)"/>
       <use xlink:href="#DejaVuSans-73" transform="translate(901.160156 0)"/>
       <use xlink:href="#DejaVuSans-70" transform="translate(953.259766 0)"/>
       <use xlink:href="#DejaVuSans-72" transform="translate(1016.736328 0)"/>
       <use xlink:href="#DejaVuSans-e1" transform="translate(1057.849609 0)"/>
       <use xlink:href="#DejaVuSans-76" transform="translate(1119.128906 0)"/>
       <use xlink:href="#DejaVuSans-6e" transform="translate(1178.308594 0)"/>
       <use xlink:href="#DejaVuSans-ed" transform="translate(1241.6875 0)"/>
      </g>
     </g>
    </g>
    <g id="ytick_3">
     <g id="line2d_21">
      <g>
       <use xlink:href="#m61282196c7" x="221.903125" y="143.653251" style="stroke: #000000; stroke-width: 0.8"/>
      </g>
     </g>
     <g id="text_13">
      <!-- 141/1961 Sb. -->
      <g transform="translate(147.94375 142.613408) scale(0.1 -0.1)">
       <use xlink:href="#DejaVuSans-31"/>
       <use xlink:href="#DejaVuSans-34" transform="translate(63.623047 0)"/>
       <use xlink:href="#DejaVuSans-31" transform="translate(127.246094 0)"/>
       <use xlink:href="#DejaVuSans-2f" transform="translate(190.869141 0)"/>
       <use xlink:href="#DejaVuSans-31" transform="translate(224.560547 0)"/>
       <use xlink:href="#DejaVuSans-39" transform="translate(288.183594 0)"/>
       <use xlink:href="#DejaVuSans-36" transform="translate(351.806641 0)"/>
       <use xlink:href="#DejaVuSans-31" transform="translate(415.429688 0)"/>
       <use xlink:href="#DejaVuSans-20" transform="translate(479.052734 0)"/>
       <use xlink:href="#DejaVuSans-53" transform="translate(510.839844 0)"/>
       <use xlink:href="#DejaVuSans-62" transform="translate(574.316406 0)"/>
       <use xlink:href="#DejaVuSans-2e" transform="translate(637.792969 0)"/>
      </g>
      <!-- Zákon o trestním řízení soudním... -->
      <g transform="translate(43.453125 153.81122) scale(0.1 -0.1)">
       <defs>
        <path id="DejaVuSans-6d" d="M 3328 2828 
Q 3544 3216 3844 3400 
Q 4144 3584 4550 3584 
Q 5097 3584 5394 3201 
Q 5691 2819 5691 2113 
L 5691 0 
L 5113 0 
L 5113 2094 
Q 5113 2597 4934 2840 
Q 4756 3084 4391 3084 
Q 3944 3084 3684 2787 
Q 3425 2491 3425 1978 
L 3425 0 
L 2847 0 
L 2847 2094 
Q 2847 2600 2669 2842 
Q 2491 3084 2119 3084 
Q 1678 3084 1418 2786 
Q 1159 2488 1159 1978 
L 1159 0 
L 581 0 
L 581 3500 
L 1159 3500 
L 1159 2956 
Q 1356 3278 1631 3431 
Q 1906 3584 2284 3584 
Q 2666 3584 2933 3390 
Q 3200 3197 3328 2828 
z
" transform="scale(0.015625)"/>
        <path id="DejaVuSans-7a" d="M 353 3500 
L 3084 3500 
L 3084 2975 
L 922 459 
L 3084 459 
L 3084 0 
L 275 0 
L 275 525 
L 2438 3041 
L 353 3041 
L 353 3500 
z
" transform="scale(0.015625)"/>
       </defs>
       <use xlink:href="#DejaVuSans-5a"/>
       <use xlink:href="#DejaVuSans-e1" transform="translate(68.505859 0)"/>
       <use xlink:href="#DejaVuSans-6b" transform="translate(129.785156 0)"/>
       <use xlink:href="#DejaVuSans-6f" transform="translate(184.070312 0)"/>
       <use xlink:href="#DejaVuSans-6e" transform="translate(245.251953 0)"/>
       <use xlink:href="#DejaVuSans-20" transform="translate(308.630859 0)"/>
       <use xlink:href="#DejaVuSans-6f" transform="translate(340.417969 0)"/>
       <use xlink:href="#DejaVuSans-20" transform="translate(401.599609 0)"/>
       <use xlink:href="#DejaVuSans-74" transform="translate(433.386719 0)"/>
       <use xlink:href="#DejaVuSans-72" transform="translate(472.595703 0)"/>
       <use xlink:href="#DejaVuSans-65" transform="translate(511.458984 0)"/>
       <use xlink:href="#DejaVuSans-73" transform="translate(572.982422 0)"/>
       <use xlink:href="#DejaVuSans-74" transform="translate(625.082031 0)"/>
       <use xlink:href="#DejaVuSans-6e" transform="translate(664.291016 0)"/>
       <use xlink:href="#DejaVuSans-ed" transform="translate(727.669922 0)"/>
       <use xlink:href="#DejaVuSans-6d" transform="translate(755.453125 0)"/>
       <use xlink:href="#DejaVuSans-20" transform="translate(852.865234 0)"/>
       <use xlink:href="#DejaVuSans-159" transform="translate(884.652344 0)"/>
       <use xlink:href="#DejaVuSans-ed" transform="translate(925.765625 0)"/>
       <use xlink:href="#DejaVuSans-7a" transform="translate(953.548828 0)"/>
       <use xlink:href="#DejaVuSans-65" transform="translate(1006.039062 0)"/>
       <use xlink:href="#DejaVuSans-6e" transform="translate(1067.5625 0)"/>
       <use xlink:href="#DejaVuSans-ed" transform="translate(1130.941406 0)"/>
       <use xlink:href="#DejaVuSans-20" transform="translate(1158.724609 0)"/>
       <use xlink:href="#DejaVuSans-73" transform="translate(1190.511719 0)"/>
       <use xlink:href="#DejaVuSans-6f" transform="translate(1242.611328 0)"/>
       <use xlink:href="#DejaVuSans-75" transform="translate(1303.792969 0)"/>
       <use xlink:href="#DejaVuSans-64" transform="translate(1367.171875 0)"/>
       <use xlink:href="#DejaVuSans-6e" transform="translate(1430.648438 0)"/>
       <use xlink:href="#DejaVuSans-ed" transform="translate(1494.027344 0)"/>
       <use xlink:href="#DejaVuSans-6d" transform="translate(1521.810547 0)"/>
       <use xlink:href="#DejaVuSans-2e" transform="translate(1619.222656 0)"/>
       <use xlink:href="#DejaVuSans-2e" transform="translate(1651.009766 0)"/>
       <use xlink:href="#DejaVuSans-2e" transform="translate(1682.796875 0)"/>
      </g>
     </g>
    </g>
    <g id="ytick_4">
     <g id="line2d_22">
      <g>
       <use xlink:href="#m61282196c7" x="221.903125" y="180.142195" style="stroke: #000000; stroke-width: 0.8"/>
      </g>
     </g>
     <g id="text_14">
      <!-- 500/2004 Sb. -->
      <g transform="translate(147.94375 178.902351) scale(0.1 -0.1)">
       <use xlink:href="#DejaVuSans-35"/>
       <use xlink:href="#DejaVuSans-30" transform="translate(63.623047 0)"/>
       <use xlink:href="#DejaVuSans-30" transform="translate(127.246094 0)"/>
       <use xlink:href="#DejaVuSans-2f" transform="translate(190.869141 0)"/>
       <use xlink:href="#DejaVuSans-32" transform="translate(224.560547 0)"/>
       <use xlink:href="#DejaVuSans-30" transform="translate(288.183594 0)"/>
       <use xlink:href="#DejaVuSans-30" transform="translate(351.806641 0)"/>
       <use xlink:href="#DejaVuSans-34" transform="translate(415.429688 0)"/>
       <use xlink:href="#DejaVuSans-20" transform="translate(479.052734 0)"/>
       <use xlink:href="#DejaVuSans-53" transform="translate(510.839844 0)"/>
       <use xlink:href="#DejaVuSans-62" transform="translate(574.316406 0)"/>
       <use xlink:href="#DejaVuSans-2e" transform="translate(637.792969 0)"/>
      </g>
      <!-- Zákon správní řád -->
      <g transform="translate(124.265625 190.580164) scale(0.1 -0.1)">
       <use xlink:href="#DejaVuSans-5a"/>
       <use xlink:href="#DejaVuSans-e1" transform="translate(68.505859 0)"/>
       <use xlink:href="#DejaVuSans-6b" transform="translate(129.785156 0)"/>
       <use xlink:href="#DejaVuSans-6f" transform="translate(184.070312 0)"/>
       <use xlink:href="#DejaVuSans-6e" transform="translate(245.251953 0)"/>
       <use xlink:href="#DejaVuSans-20" transform="translate(308.630859 0)"/>
       <use xlink:href="#DejaVuSans-73" transform="translate(340.417969 0)"/>
       <use xlink:href="#DejaVuSans-70" transform="translate(392.517578 0)"/>
       <use xlink:href="#DejaVuSans-72" transform="translate(455.994141 0)"/>
       <use xlink:href="#DejaVuSans-e1" transform="translate(497.107422 0)"/>
       <use xlink:href="#DejaVuSans-76" transform="translate(558.386719 0)"/>
       <use xlink:href="#DejaVuSans-6e" transform="translate(617.566406 0)"/>
       <use xlink:href="#DejaVuSans-ed" transform="translate(680.945312 0)"/>
       <use xlink:href="#DejaVuSans-20" transform="translate(708.728516 0)"/>
       <use xlink:href="#DejaVuSans-159" transform="translate(740.515625 0)"/>
       <use xlink:href="#DejaVuSans-e1" transform="translate(781.628906 0)"/>
       <use xlink:href="#DejaVuSans-64" transform="translate(842.908203 0)"/>
      </g>
     </g>
    </g>
    <g id="ytick_5">
     <g id="line2d_23">
      <g>
       <use xlink:href="#m61282196c7" x="221.903125" y="216.631138" style="stroke: #000000; stroke-width: 0.8"/>
      </g>
     </g>
     <g id="text_15">
      <!-- 182/1993 Sb. -->
      <g transform="translate(147.94375 215.591295) scale(0.1 -0.1)">
       <use xlink:href="#DejaVuSans-31"/>
       <use xlink:href="#DejaVuSans-38" transform="translate(63.623047 0)"/>
       <use xlink:href="#DejaVuSans-32" transform="translate(127.246094 0)"/>
       <use xlink:href="#DejaVuSans-2f" transform="translate(190.869141 0)"/>
       <use xlink:href="#DejaVuSans-31" transform="translate(224.560547 0)"/>
       <use xlink:href="#DejaVuSans-39" transform="translate(288.183594 0)"/>
       <use xlink:href="#DejaVuSans-39" transform="translate(351.806641 0)"/>
       <use xlink:href="#DejaVuSans-33" transform="translate(415.429688 0)"/>
       <use xlink:href="#DejaVuSans-20" transform="translate(479.052734 0)"/>
       <use xlink:href="#DejaVuSans-53" transform="translate(510.839844 0)"/>
       <use xlink:href="#DejaVuSans-62" transform="translate(574.316406 0)"/>
       <use xlink:href="#DejaVuSans-2e" transform="translate(637.792969 0)"/>
      </g>
      <!-- Zákon o Ústavním soudu -->
      <g transform="translate(90.684375 226.789107) scale(0.1 -0.1)">
       <defs>
        <path id="DejaVuSans-da" d="M 556 4666 
L 1191 4666 
L 1191 1831 
Q 1191 1081 1462 751 
Q 1734 422 2344 422 
Q 2950 422 3222 751 
Q 3494 1081 3494 1831 
L 3494 4666 
L 4128 4666 
L 4128 1753 
Q 4128 841 3676 375 
Q 3225 -91 2344 -91 
Q 1459 -91 1007 375 
Q 556 841 556 1753 
L 556 4666 
z
M 2516 5921 
L 3094 5921 
L 2382 5096 
L 1903 5096 
L 2516 5921 
z
" transform="scale(0.015625)"/>
       </defs>
       <use xlink:href="#DejaVuSans-5a"/>
       <use xlink:href="#DejaVuSans-e1" transform="translate(68.505859 0)"/>
       <use xlink:href="#DejaVuSans-6b" transform="translate(129.785156 0)"/>
       <use xlink:href="#DejaVuSans-6f" transform="translate(184.070312 0)"/>
       <use xlink:href="#DejaVuSans-6e" transform="translate(245.251953 0)"/>
       <use xlink:href="#DejaVuSans-20" transform="translate(308.630859 0)"/>
       <use xlink:href="#DejaVuSans-6f" transform="translate(340.417969 0)"/>
       <use xlink:href="#DejaVuSans-20" transform="translate(401.599609 0)"/>
       <use xlink:href="#DejaVuSans-da" transform="translate(433.386719 0)"/>
       <use xlink:href="#DejaVuSans-73" transform="translate(506.580078 0)"/>
       <use xlink:href="#DejaVuSans-74" transform="translate(558.679688 0)"/>
       <use xlink:href="#DejaVuSans-61" transform="translate(597.888672 0)"/>
       <use xlink:href="#DejaVuSans-76" transform="translate(659.167969 0)"/>
       <use xlink:href="#DejaVuSans-6e" transform="translate(718.347656 0)"/>
       <use xlink:href="#DejaVuSans-ed" transform="translate(781.726562 0)"/>
       <use xlink:href="#DejaVuSans-6d" transform="translate(809.509766 0)"/>
       <use xlink:href="#DejaVuSans-20" transform="translate(906.921875 0)"/>
       <use xlink:href="#DejaVuSans-73" transform="translate(938.708984 0)"/>
       <use xlink:href="#DejaVuSans-6f" transform="translate(990.808594 0)"/>
       <use xlink:href="#DejaVuSans-75" transform="translate(1051.990234 0)"/>
       <use xlink:href="#DejaVuSans-64" transform="translate(1115.369141 0)"/>
       <use xlink:href="#DejaVuSans-75" transform="translate(1178.845703 0)"/>
      </g>
     </g>
    </g>
    <g id="ytick_6">
     <g id="line2d_24">
      <g>
       <use xlink:href="#m61282196c7" x="221.903125" y="253.120082" style="stroke: #000000; stroke-width: 0.8"/>
      </g>
     </g>
     <g id="text_16">
      <!-- 40/2009 Sb. -->
      <g transform="translate(154.30625 252.080238) scale(0.1 -0.1)">
       <use xlink:href="#DejaVuSans-34"/>
       <use xlink:href="#DejaVuSans-30" transform="translate(63.623047 0)"/>
       <use xlink:href="#DejaVuSans-2f" transform="translate(127.246094 0)"/>
       <use xlink:href="#DejaVuSans-32" transform="translate(160.9375 0)"/>
       <use xlink:href="#DejaVuSans-30" transform="translate(224.560547 0)"/>
       <use xlink:href="#DejaVuSans-30" transform="translate(288.183594 0)"/>
       <use xlink:href="#DejaVuSans-39" transform="translate(351.806641 0)"/>
       <use xlink:href="#DejaVuSans-20" transform="translate(415.429688 0)"/>
       <use xlink:href="#DejaVuSans-53" transform="translate(447.216797 0)"/>
       <use xlink:href="#DejaVuSans-62" transform="translate(510.693359 0)"/>
       <use xlink:href="#DejaVuSans-2e" transform="translate(574.169922 0)"/>
      </g>
      <!-- Zákon trestní zákoník -->
      <g transform="translate(107.65 263.278051) scale(0.1 -0.1)">
       <use xlink:href="#DejaVuSans-5a"/>
       <use xlink:href="#DejaVuSans-e1" transform="translate(68.505859 0)"/>
       <use xlink:href="#DejaVuSans-6b" transform="translate(129.785156 0)"/>
       <use xlink:href="#DejaVuSans-6f" transform="translate(184.070312 0)"/>
       <use xlink:href="#DejaVuSans-6e" transform="translate(245.251953 0)"/>
       <use xlink:href="#DejaVuSans-20" transform="translate(308.630859 0)"/>
       <use xlink:href="#DejaVuSans-74" transform="translate(340.417969 0)"/>
       <use xlink:href="#DejaVuSans-72" transform="translate(379.626953 0)"/>
       <use xlink:href="#DejaVuSans-65" transform="translate(418.490234 0)"/>
       <use xlink:href="#DejaVuSans-73" transform="translate(480.013672 0)"/>
       <use xlink:href="#DejaVuSans-74" transform="translate(532.113281 0)"/>
       <use xlink:href="#DejaVuSans-6e" transform="translate(571.322266 0)"/>
       <use xlink:href="#DejaVuSans-ed" transform="translate(634.701172 0)"/>
       <use xlink:href="#DejaVuSans-20" transform="translate(662.484375 0)"/>
       <use xlink:href="#DejaVuSans-7a" transform="translate(694.271484 0)"/>
       <use xlink:href="#DejaVuSans-e1" transform="translate(746.761719 0)"/>
       <use xlink:href="#DejaVuSans-6b" transform="translate(808.041016 0)"/>
       <use xlink:href="#DejaVuSans-6f" transform="translate(862.326172 0)"/>
       <use xlink:href="#DejaVuSans-6e" transform="translate(923.507812 0)"/>
       <use xlink:href="#DejaVuSans-ed" transform="translate(986.886719 0)"/>
       <use xlink:href="#DejaVuSans-6b" transform="translate(1014.669922 0)"/>
      </g>
     </g>
    </g>
    <g id="ytick_7">
     <g id="line2d_25">
      <g>
       <use xlink:href="#m61282196c7" x="221.903125" y="289.609025" style="stroke: #000000; stroke-width: 0.8"/>
      </g>
     </g>
     <g id="text_17">
      <!-- 2/1993 Sb. -->
      <g transform="translate(160.66875 287.737932) scale(0.1 -0.1)">
       <use xlink:href="#DejaVuSans-32"/>
       <use xlink:href="#DejaVuSans-2f" transform="translate(63.623047 0)"/>
       <use xlink:href="#DejaVuSans-31" transform="translate(97.314453 0)"/>
       <use xlink:href="#DejaVuSans-39" transform="translate(160.9375 0)"/>
       <use xlink:href="#DejaVuSans-39" transform="translate(224.560547 0)"/>
       <use xlink:href="#DejaVuSans-33" transform="translate(288.183594 0)"/>
       <use xlink:href="#DejaVuSans-20" transform="translate(351.806641 0)"/>
       <use xlink:href="#DejaVuSans-53" transform="translate(383.59375 0)"/>
       <use xlink:href="#DejaVuSans-62" transform="translate(447.070312 0)"/>
       <use xlink:href="#DejaVuSans-2e" transform="translate(510.546875 0)"/>
      </g>
      <!-- Usnesení předsednictva České národní... -->
      <g transform="translate(11.448437 300.930744) scale(0.1 -0.1)">
       <defs>
        <path id="DejaVuSans-55" d="M 556 4666 
L 1191 4666 
L 1191 1831 
Q 1191 1081 1462 751 
Q 1734 422 2344 422 
Q 2950 422 3222 751 
Q 3494 1081 3494 1831 
L 3494 4666 
L 4128 4666 
L 4128 1753 
Q 4128 841 3676 375 
Q 3225 -91 2344 -91 
Q 1459 -91 1007 375 
Q 556 841 556 1753 
L 556 4666 
z
" transform="scale(0.015625)"/>
        <path id="DejaVuSans-10c" d="M 4122 4306 
L 4122 3641 
Q 3803 3938 3442 4084 
Q 3081 4231 2675 4231 
Q 1875 4231 1450 3742 
Q 1025 3253 1025 2328 
Q 1025 1406 1450 917 
Q 1875 428 2675 428 
Q 3081 428 3442 575 
Q 3803 722 4122 1019 
L 4122 359 
Q 3791 134 3420 21 
Q 3050 -91 2638 -91 
Q 1578 -91 968 557 
Q 359 1206 359 2328 
Q 359 3453 968 4101 
Q 1578 4750 2638 4750 
Q 3056 4750 3426 4639 
Q 3797 4528 4122 4306 
z
M 2250 5096 
L 1591 5927 
L 2025 5927 
L 2544 5371 
L 3063 5927 
L 3497 5927 
L 2838 5096 
L 2250 5096 
z
" transform="scale(0.015625)"/>
        <path id="DejaVuSans-e9" d="M 3597 1894 
L 3597 1613 
L 953 1613 
Q 991 1019 1311 708 
Q 1631 397 2203 397 
Q 2534 397 2845 478 
Q 3156 559 3463 722 
L 3463 178 
Q 3153 47 2828 -22 
Q 2503 -91 2169 -91 
Q 1331 -91 842 396 
Q 353 884 353 1716 
Q 353 2575 817 3079 
Q 1281 3584 2069 3584 
Q 2775 3584 3186 3129 
Q 3597 2675 3597 1894 
z
M 3022 2063 
Q 3016 2534 2758 2815 
Q 2500 3097 2075 3097 
Q 1594 3097 1305 2825 
Q 1016 2553 972 2059 
L 3022 2063 
z
M 2466 5119 
L 3088 5119 
L 2070 3944 
L 1591 3944 
L 2466 5119 
z
" transform="scale(0.015625)"/>
       </defs>
       <use xlink:href="#DejaVuSans-55"/>
       <use xlink:href="#DejaVuSans-73" transform="translate(73.193359 0)"/>
       <use xlink:href="#DejaVuSans-6e" transform="translate(125.292969 0)"/>
       <use xlink:href="#DejaVuSans-65" transform="translate(188.671875 0)"/>
       <use xlink:href="#DejaVuSans-73" transform="translate(250.195312 0)"/>
       <use xlink:href="#DejaVuSans-65" transform="translate(302.294922 0)"/>
       <use xlink:href="#DejaVuSans-6e" transform="translate(363.818359 0)"/>
       <use xlink:href="#DejaVuSans-ed" transform="translate(427.197266 0)"/>
       <use xlink:href="#DejaVuSans-20" transform="translate(454.980469 0)"/>
       <use xlink:href="#DejaVuSans-70" transform="translate(486.767578 0)"/>
       <use xlink:href="#DejaVuSans-159" transform="translate(550.244141 0)"/>
       <use xlink:href="#DejaVuSans-65" transform="translate(589.107422 0)"/>
       <use xlink:href="#DejaVuSans-64" transform="translate(650.630859 0)"/>
       <use xlink:href="#DejaVuSans-73" transform="translate(714.107422 0)"/>
       <use xlink:href="#DejaVuSans-65" transform="translate(766.207031 0)"/>
       <use xlink:href="#DejaVuSans-64" transform="translate(827.730469 0)"/>
       <use xlink:href="#DejaVuSans-6e" transform="translate(891.207031 0)"/>
       <use xlink:href="#DejaVuSans-69" transform="translate(954.585938 0)"/>
       <use xlink:href="#DejaVuSans-63" transform="translate(982.369141 0)"/>
       <use xlink:href="#DejaVuSans-74" transform="translate(1037.349609 0)"/>
       <use xlink:href="#DejaVuSans-76" transform="translate(1076.558594 0)"/>
       <use xlink:href="#DejaVuSans-61" transform="translate(1135.738281 0)"/>
       <use xlink:href="#DejaVuSans-20" transform="translate(1197.017578 0)"/>
       <use xlink:href="#DejaVuSans-10c" transform="translate(1228.804688 0)"/>
       <use xlink:href="#DejaVuSans-65" transform="translate(1298.628906 0)"/>
       <use xlink:href="#DejaVuSans-73" transform="translate(1360.152344 0)"/>
       <use xlink:href="#DejaVuSans-6b" transform="translate(1412.251953 0)"/>
       <use xlink:href="#DejaVuSans-e9" transform="translate(1466.537109 0)"/>
       <use xlink:href="#DejaVuSans-20" transform="translate(1528.060547 0)"/>
       <use xlink:href="#DejaVuSans-6e" transform="translate(1559.847656 0)"/>
       <use xlink:href="#DejaVuSans-e1" transform="translate(1623.226562 0)"/>
       <use xlink:href="#DejaVuSans-72" transform="translate(1684.505859 0)"/>
       <use xlink:href="#DejaVuSans-6f" transform="translate(1723.369141 0)"/>
       <use xlink:href="#DejaVuSans-64" transform="translate(1784.550781 0)"/>
       <use xlink:href="#DejaVuSans-6e" transform="translate(1848.027344 0)"/>
       <use xlink:href="#DejaVuSans-ed" transform="translate(1911.40625 0)"/>
       <use xlink:href="#DejaVuSans-2e" transform="translate(1939.189453 0)"/>
       <use xlink:href="#DejaVuSans-2e" transform="translate(1970.976562 0)"/>
       <use xlink:href="#DejaVuSans-2e" transform="translate(2002.763672 0)"/>
      </g>
     </g>
    </g>
    <g id="ytick_8">
     <g id="line2d_26">
      <g>
       <use xlink:href="#m61282196c7" x="221.903125" y="326.097969" style="stroke: #000000; stroke-width: 0.8"/>
      </g>
     </g>
     <g id="text_18">
      <!-- 140/1961 Sb. -->
      <g transform="translate(147.94375 325.058125) scale(0.1 -0.1)">
       <use xlink:href="#DejaVuSans-31"/>
       <use xlink:href="#DejaVuSans-34" transform="translate(63.623047 0)"/>
       <use xlink:href="#DejaVuSans-30" transform="translate(127.246094 0)"/>
       <use xlink:href="#DejaVuSans-2f" transform="translate(190.869141 0)"/>
       <use xlink:href="#DejaVuSans-31" transform="translate(224.560547 0)"/>
       <use xlink:href="#DejaVuSans-39" transform="translate(288.183594 0)"/>
       <use xlink:href="#DejaVuSans-36" transform="translate(351.806641 0)"/>
       <use xlink:href="#DejaVuSans-31" transform="translate(415.429688 0)"/>
       <use xlink:href="#DejaVuSans-20" transform="translate(479.052734 0)"/>
       <use xlink:href="#DejaVuSans-53" transform="translate(510.839844 0)"/>
       <use xlink:href="#DejaVuSans-62" transform="translate(574.316406 0)"/>
       <use xlink:href="#DejaVuSans-2e" transform="translate(637.792969 0)"/>
      </g>
      <!-- Trestní zákon -->
      <g transform="translate(149.546875 336.255938) scale(0.1 -0.1)">
       <defs>
        <path id="DejaVuSans-54" d="M -19 4666 
L 3928 4666 
L 3928 4134 
L 2272 4134 
L 2272 0 
L 1638 0 
L 1638 4134 
L -19 4134 
L -19 4666 
z
" transform="scale(0.015625)"/>
       </defs>
       <use xlink:href="#DejaVuSans-54"/>
       <use xlink:href="#DejaVuSans-72" transform="translate(46.333984 0)"/>
       <use xlink:href="#DejaVuSans-65" transform="translate(85.197266 0)"/>
       <use xlink:href="#DejaVuSans-73" transform="translate(146.720703 0)"/>
       <use xlink:href="#DejaVuSans-74" transform="translate(198.820312 0)"/>
       <use xlink:href="#DejaVuSans-6e" transform="translate(238.029297 0)"/>
       <use xlink:href="#DejaVuSans-ed" transform="translate(301.408203 0)"/>
       <use xlink:href="#DejaVuSans-20" transform="translate(329.191406 0)"/>
       <use xlink:href="#DejaVuSans-7a" transform="translate(360.978516 0)"/>
       <use xlink:href="#DejaVuSans-e1" transform="translate(413.46875 0)"/>
       <use xlink:href="#DejaVuSans-6b" transform="translate(474.748047 0)"/>
       <use xlink:href="#DejaVuSans-6f" transform="translate(529.033203 0)"/>
       <use xlink:href="#DejaVuSans-6e" transform="translate(590.214844 0)"/>
      </g>
     </g>
    </g>
    <g id="ytick_9">
     <g id="line2d_27">
      <g>
       <use xlink:href="#m61282196c7" x="221.903125" y="362.586912" style="stroke: #000000; stroke-width: 0.8"/>
      </g>
     </g>
     <g id="text_19">
      <!-- 325/1999 Sb. -->
      <g transform="translate(147.94375 361.347068) scale(0.1 -0.1)">
       <use xlink:href="#DejaVuSans-33"/>
       <use xlink:href="#DejaVuSans-32" transform="translate(63.623047 0)"/>
       <use xlink:href="#DejaVuSans-35" transform="translate(127.246094 0)"/>
       <use xlink:href="#DejaVuSans-2f" transform="translate(190.869141 0)"/>
       <use xlink:href="#DejaVuSans-31" transform="translate(224.560547 0)"/>
       <use xlink:href="#DejaVuSans-39" transform="translate(288.183594 0)"/>
       <use xlink:href="#DejaVuSans-39" transform="translate(351.806641 0)"/>
       <use xlink:href="#DejaVuSans-39" transform="translate(415.429688 0)"/>
       <use xlink:href="#DejaVuSans-20" transform="translate(479.052734 0)"/>
       <use xlink:href="#DejaVuSans-53" transform="translate(510.839844 0)"/>
       <use xlink:href="#DejaVuSans-62" transform="translate(574.316406 0)"/>
       <use xlink:href="#DejaVuSans-2e" transform="translate(637.792969 0)"/>
      </g>
      <!-- Zákon o azylu a o změně zákona č.... -->
      <g transform="translate(29.784375 373.024881) scale(0.1 -0.1)">
       <defs>
        <path id="DejaVuSans-79" d="M 2059 -325 
Q 1816 -950 1584 -1140 
Q 1353 -1331 966 -1331 
L 506 -1331 
L 506 -850 
L 844 -850 
Q 1081 -850 1212 -737 
Q 1344 -625 1503 -206 
L 1606 56 
L 191 3500 
L 800 3500 
L 1894 763 
L 2988 3500 
L 3597 3500 
L 2059 -325 
z
" transform="scale(0.015625)"/>
        <path id="DejaVuSans-6c" d="M 603 4863 
L 1178 4863 
L 1178 0 
L 603 0 
L 603 4863 
z
" transform="scale(0.015625)"/>
        <path id="DejaVuSans-11b" d="M 3597 1894 
L 3597 1613 
L 953 1613 
Q 991 1019 1311 708 
Q 1631 397 2203 397 
Q 2534 397 2845 478 
Q 3156 559 3463 722 
L 3463 178 
Q 3153 47 2828 -22 
Q 2503 -91 2169 -91 
Q 1331 -91 842 396 
Q 353 884 353 1716 
Q 353 2575 817 3079 
Q 1281 3584 2069 3584 
Q 2775 3584 3186 3129 
Q 3597 2675 3597 1894 
z
M 3022 2063 
Q 3016 2534 2758 2815 
Q 2500 3097 2075 3097 
Q 1594 3097 1305 2825 
Q 1016 2553 972 2059 
L 3022 2063 
z
M 1833 3944 
L 1067 5119 
L 1502 5119 
L 2064 4353 
L 2627 5119 
L 3061 5119 
L 2295 3944 
L 1833 3944 
z
" transform="scale(0.015625)"/>
       </defs>
       <use xlink:href="#DejaVuSans-5a"/>
       <use xlink:href="#DejaVuSans-e1" transform="translate(68.505859 0)"/>
       <use xlink:href="#DejaVuSans-6b" transform="translate(129.785156 0)"/>
       <use xlink:href="#DejaVuSans-6f" transform="translate(184.070312 0)"/>
       <use xlink:href="#DejaVuSans-6e" transform="translate(245.251953 0)"/>
       <use xlink:href="#DejaVuSans-20" transform="translate(308.630859 0)"/>
       <use xlink:href="#DejaVuSans-6f" transform="translate(340.417969 0)"/>
       <use xlink:href="#DejaVuSans-20" transform="translate(401.599609 0)"/>
       <use xlink:href="#DejaVuSans-61" transform="translate(433.386719 0)"/>
       <use xlink:href="#DejaVuSans-7a" transform="translate(494.666016 0)"/>
       <use xlink:href="#DejaVuSans-79" transform="translate(547.15625 0)"/>
       <use xlink:href="#DejaVuSans-6c" transform="translate(606.335938 0)"/>
       <use xlink:href="#DejaVuSans-75" transform="translate(634.119141 0)"/>
       <use xlink:href="#DejaVuSans-20" transform="translate(697.498047 0)"/>
       <use xlink:href="#DejaVuSans-61" transform="translate(729.285156 0)"/>
       <use xlink:href="#DejaVuSans-20" transform="translate(790.564453 0)"/>
       <use xlink:href="#DejaVuSans-6f" transform="translate(822.351562 0)"/>
       <use xlink:href="#DejaVuSans-20" transform="translate(883.533203 0)"/>
       <use xlink:href="#DejaVuSans-7a" transform="translate(915.320312 0)"/>
       <use xlink:href="#DejaVuSans-6d" transform="translate(967.810547 0)"/>
       <use xlink:href="#DejaVuSans-11b" transform="translate(1065.222656 0)"/>
       <use xlink:href="#DejaVuSans-6e" transform="translate(1126.746094 0)"/>
       <use xlink:href="#DejaVuSans-11b" transform="translate(1190.125 0)"/>
       <use xlink:href="#DejaVuSans-20" transform="translate(1251.648438 0)"/>
       <use xlink:href="#DejaVuSans-7a" transform="translate(1283.435547 0)"/>
       <use xlink:href="#DejaVuSans-e1" transform="translate(1335.925781 0)"/>
       <use xlink:href="#DejaVuSans-6b" transform="translate(1397.205078 0)"/>
       <use xlink:href="#DejaVuSans-6f" transform="translate(1451.490234 0)"/>
       <use xlink:href="#DejaVuSans-6e" transform="translate(1512.671875 0)"/>
       <use xlink:href="#DejaVuSans-61" transform="translate(1576.050781 0)"/>
       <use xlink:href="#DejaVuSans-20" transform="translate(1637.330078 0)"/>
       <use xlink:href="#DejaVuSans-10d" transform="translate(1669.117188 0)"/>
       <use xlink:href="#DejaVuSans-2e" transform="translate(1724.097656 0)"/>
       <use xlink:href="#DejaVuSans-2e" transform="translate(1755.884766 0)"/>
       <use xlink:href="#DejaVuSans-2e" transform="translate(1787.671875 0)"/>
       <use xlink:href="#DejaVuSans-2e" transform="translate(1819.458984 0)"/>
      </g>
     </g>
    </g>
    <g id="ytick_10">
     <g id="line2d_28">
      <g>
       <use xlink:href="#m61282196c7" x="221.903125" y="399.075856" style="stroke: #000000; stroke-width: 0.8"/>
      </g>
     </g>
     <g id="text_20">
      <!-- 326/1999 Sb. -->
      <g transform="translate(147.94375 397.204762) scale(0.1 -0.1)">
       <use xlink:href="#DejaVuSans-33"/>
       <use xlink:href="#DejaVuSans-32" transform="translate(63.623047 0)"/>
       <use xlink:href="#DejaVuSans-36" transform="translate(127.246094 0)"/>
       <use xlink:href="#DejaVuSans-2f" transform="translate(190.869141 0)"/>
       <use xlink:href="#DejaVuSans-31" transform="translate(224.560547 0)"/>
       <use xlink:href="#DejaVuSans-39" transform="translate(288.183594 0)"/>
       <use xlink:href="#DejaVuSans-39" transform="translate(351.806641 0)"/>
       <use xlink:href="#DejaVuSans-39" transform="translate(415.429688 0)"/>
       <use xlink:href="#DejaVuSans-20" transform="translate(479.052734 0)"/>
       <use xlink:href="#DejaVuSans-53" transform="translate(510.839844 0)"/>
       <use xlink:href="#DejaVuSans-62" transform="translate(574.316406 0)"/>
       <use xlink:href="#DejaVuSans-2e" transform="translate(637.792969 0)"/>
      </g>
      <!-- Zákon o pobytu cizinců na území České... -->
      <g transform="translate(7.2 410.397574) scale(0.1 -0.1)">
       <defs>
        <path id="DejaVuSans-16f" d="M 544 1381 
L 544 3500 
L 1119 3500 
L 1119 1403 
Q 1119 906 1312 657 
Q 1506 409 1894 409 
Q 2359 409 2629 706 
Q 2900 1003 2900 1516 
L 2900 3500 
L 3475 3500 
L 3475 0 
L 2900 0 
L 2900 538 
Q 2691 219 2414 64 
Q 2138 -91 1772 -91 
Q 1169 -91 856 284 
Q 544 659 544 1381 
z
M 1991 3584 
L 1991 3584 
z
M 2459 4571 
Q 2459 4767 2321 4904 
Q 2184 5042 1984 5042 
Q 1781 5042 1645 4906 
Q 1509 4771 1509 4571 
Q 1509 4367 1645 4231 
Q 1781 4096 1984 4096 
Q 2184 4096 2321 4233 
Q 2459 4371 2459 4571 
z
M 2840 4571 
Q 2840 4211 2591 3961 
Q 2343 3711 1984 3711 
Q 1625 3711 1376 3961 
Q 1128 4211 1128 4571 
Q 1128 4930 1376 5178 
Q 1625 5427 1984 5427 
Q 2343 5427 2591 5178 
Q 2840 4930 2840 4571 
z
" transform="scale(0.015625)"/>
        <path id="DejaVuSans-fa" d="M 544 1381 
L 544 3500 
L 1119 3500 
L 1119 1403 
Q 1119 906 1312 657 
Q 1506 409 1894 409 
Q 2359 409 2629 706 
Q 2900 1003 2900 1516 
L 2900 3500 
L 3475 3500 
L 3475 0 
L 2900 0 
L 2900 538 
Q 2691 219 2414 64 
Q 2138 -91 1772 -91 
Q 1169 -91 856 284 
Q 544 659 544 1381 
z
M 1991 3584 
L 1991 3584 
z
M 2418 5119 
L 3040 5119 
L 2022 3944 
L 1543 3944 
L 2418 5119 
z
" transform="scale(0.015625)"/>
       </defs>
       <use xlink:href="#DejaVuSans-5a"/>
       <use xlink:href="#DejaVuSans-e1" transform="translate(68.505859 0)"/>
       <use xlink:href="#DejaVuSans-6b" transform="translate(129.785156 0)"/>
       <use xlink:href="#DejaVuSans-6f" transform="translate(184.070312 0)"/>
       <use xlink:href="#DejaVuSans-6e" transform="translate(245.251953 0)"/>
       <use xlink:href="#DejaVuSans-20" transform="translate(308.630859 0)"/>
       <use xlink:href="#DejaVuSans-6f" transform="translate(340.417969 0)"/>
       <use xlink:href="#DejaVuSans-20" transform="translate(401.599609 0)"/>
       <use xlink:href="#DejaVuSans-70" transform="translate(433.386719 0)"/>
       <use xlink:href="#DejaVuSans-6f" transform="translate(496.863281 0)"/>
       <use xlink:href="#DejaVuSans-62" transform="translate(558.044922 0)"/>
       <use xlink:href="#DejaVuSans-79" transform="translate(621.521484 0)"/>
       <use xlink:href="#DejaVuSans-74" transform="translate(680.701172 0)"/>
       <use xlink:href="#DejaVuSans-75" transform="translate(719.910156 0)"/>
       <use xlink:href="#DejaVuSans-20" transform="translate(783.289062 0)"/>
       <use xlink:href="#DejaVuSans-63" transform="translate(815.076172 0)"/>
       <use xlink:href="#DejaVuSans-69" transform="translate(870.056641 0)"/>
       <use xlink:href="#DejaVuSans-7a" transform="translate(897.839844 0)"/>
       <use xlink:href="#DejaVuSans-69" transform="translate(950.330078 0)"/>
       <use xlink:href="#DejaVuSans-6e" transform="translate(978.113281 0)"/>
       <use xlink:href="#DejaVuSans-63" transform="translate(1041.492188 0)"/>
       <use xlink:href="#DejaVuSans-16f" transform="translate(1096.472656 0)"/>
       <use xlink:href="#DejaVuSans-20" transform="translate(1159.851562 0)"/>
       <use xlink:href="#DejaVuSans-6e" transform="translate(1191.638672 0)"/>
       <use xlink:href="#DejaVuSans-61" transform="translate(1255.017578 0)"/>
       <use xlink:href="#DejaVuSans-20" transform="translate(1316.296875 0)"/>
       <use xlink:href="#DejaVuSans-fa" transform="translate(1348.083984 0)"/>
       <use xlink:href="#DejaVuSans-7a" transform="translate(1411.462891 0)"/>
       <use xlink:href="#DejaVuSans-65" transform="translate(1463.953125 0)"/>
       <use xlink:href="#DejaVuSans-6d" transform="translate(1525.476562 0)"/>
       <use xlink:href="#DejaVuSans-ed" transform="translate(1622.888672 0)"/>
       <use xlink:href="#DejaVuSans-20" transform="translate(1650.671875 0)"/>
       <use xlink:href="#DejaVuSans-10c" transform="translate(1682.458984 0)"/>
       <use xlink:href="#DejaVuSans-65" transform="translate(1752.283203 0)"/>
       <use xlink:href="#DejaVuSans-73" transform="translate(1813.806641 0)"/>
       <use xlink:href="#DejaVuSans-6b" transform="translate(1865.90625 0)"/>
       <use xlink:href="#DejaVuSans-e9" transform="translate(1920.191406 0)"/>
       <use xlink:href="#DejaVuSans-2e" transform="translate(1981.714844 0)"/>
       <use xlink:href="#DejaVuSans-2e" transform="translate(2013.501953 0)"/>
       <use xlink:href="#DejaVuSans-2e" transform="translate(2045.289062 0)"/>
      </g>
     </g>
    </g>
    <g id="ytick_11">
     <g id="line2d_29">
      <g>
       <use xlink:href="#m61282196c7" x="221.903125" y="435.564799" style="stroke: #000000; stroke-width: 0.8"/>
      </g>
     </g>
     <g id="text_21">
      <!-- 137/2006 Sb. -->
      <g transform="translate(147.94375 434.324955) scale(0.1 -0.1)">
       <defs>
        <path id="DejaVuSans-37" d="M 525 4666 
L 3525 4666 
L 3525 4397 
L 1831 0 
L 1172 0 
L 2766 4134 
L 525 4134 
L 525 4666 
z
" transform="scale(0.015625)"/>
       </defs>
       <use xlink:href="#DejaVuSans-31"/>
       <use xlink:href="#DejaVuSans-33" transform="translate(63.623047 0)"/>
       <use xlink:href="#DejaVuSans-37" transform="translate(127.246094 0)"/>
       <use xlink:href="#DejaVuSans-2f" transform="translate(190.869141 0)"/>
       <use xlink:href="#DejaVuSans-32" transform="translate(224.560547 0)"/>
       <use xlink:href="#DejaVuSans-30" transform="translate(288.183594 0)"/>
       <use xlink:href="#DejaVuSans-30" transform="translate(351.806641 0)"/>
       <use xlink:href="#DejaVuSans-36" transform="translate(415.429688 0)"/>
       <use xlink:href="#DejaVuSans-20" transform="translate(479.052734 0)"/>
       <use xlink:href="#DejaVuSans-53" transform="translate(510.839844 0)"/>
       <use xlink:href="#DejaVuSans-62" transform="translate(574.316406 0)"/>
       <use xlink:href="#DejaVuSans-2e" transform="translate(637.792969 0)"/>
      </g>
      <!-- Zákon o veřejných zakázkách -->
      <g transform="translate(67.457812 446.002768) scale(0.1 -0.1)">
       <defs>
        <path id="DejaVuSans-6a" d="M 603 3500 
L 1178 3500 
L 1178 -63 
Q 1178 -731 923 -1031 
Q 669 -1331 103 -1331 
L -116 -1331 
L -116 -844 
L 38 -844 
Q 366 -844 484 -692 
Q 603 -541 603 -63 
L 603 3500 
z
M 603 4863 
L 1178 4863 
L 1178 4134 
L 603 4134 
L 603 4863 
z
" transform="scale(0.015625)"/>
        <path id="DejaVuSans-68" d="M 3513 2113 
L 3513 0 
L 2938 0 
L 2938 2094 
Q 2938 2591 2744 2837 
Q 2550 3084 2163 3084 
Q 1697 3084 1428 2787 
Q 1159 2491 1159 1978 
L 1159 0 
L 581 0 
L 581 4863 
L 1159 4863 
L 1159 2956 
Q 1366 3272 1645 3428 
Q 1925 3584 2291 3584 
Q 2894 3584 3203 3211 
Q 3513 2838 3513 2113 
z
" transform="scale(0.015625)"/>
       </defs>
       <use xlink:href="#DejaVuSans-5a"/>
       <use xlink:href="#DejaVuSans-e1" transform="translate(68.505859 0)"/>
       <use xlink:href="#DejaVuSans-6b" transform="translate(129.785156 0)"/>
       <use xlink:href="#DejaVuSans-6f" transform="translate(184.070312 0)"/>
       <use xlink:href="#DejaVuSans-6e" transform="translate(245.251953 0)"/>
       <use xlink:href="#DejaVuSans-20" transform="translate(308.630859 0)"/>
       <use xlink:href="#DejaVuSans-6f" transform="translate(340.417969 0)"/>
       <use xlink:href="#DejaVuSans-20" transform="translate(401.599609 0)"/>
       <use xlink:href="#DejaVuSans-76" transform="translate(433.386719 0)"/>
       <use xlink:href="#DejaVuSans-65" transform="translate(492.566406 0)"/>
       <use xlink:href="#DejaVuSans-159" transform="translate(554.089844 0)"/>
       <use xlink:href="#DejaVuSans-65" transform="translate(592.953125 0)"/>
       <use xlink:href="#DejaVuSans-6a" transform="translate(654.476562 0)"/>
       <use xlink:href="#DejaVuSans-6e" transform="translate(682.259766 0)"/>
       <use xlink:href="#DejaVuSans-fd" transform="translate(745.638672 0)"/>
       <use xlink:href="#DejaVuSans-63" transform="translate(804.818359 0)"/>
       <use xlink:href="#DejaVuSans-68" transform="translate(859.798828 0)"/>
       <use xlink:href="#DejaVuSans-20" transform="translate(923.177734 0)"/>
       <use xlink:href="#DejaVuSans-7a" transform="translate(954.964844 0)"/>
       <use xlink:href="#DejaVuSans-61" transform="translate(1007.455078 0)"/>
       <use xlink:href="#DejaVuSans-6b" transform="translate(1068.734375 0)"/>
       <use xlink:href="#DejaVuSans-e1" transform="translate(1124.894531 0)"/>
       <use xlink:href="#DejaVuSans-7a" transform="translate(1186.173828 0)"/>
       <use xlink:href="#DejaVuSans-6b" transform="translate(1238.664062 0)"/>
       <use xlink:href="#DejaVuSans-e1" transform="translate(1294.824219 0)"/>
       <use xlink:href="#DejaVuSans-63" transform="translate(1356.103516 0)"/>
       <use xlink:href="#DejaVuSans-68" transform="translate(1411.083984 0)"/>
      </g>
     </g>
    </g>
    <g id="ytick_12">
     <g id="line2d_30">
      <g>
       <use xlink:href="#m61282196c7" x="221.903125" y="472.053743" style="stroke: #000000; stroke-width: 0.8"/>
      </g>
     </g>
     <g id="text_22">
      <!-- 280/2009 Sb. -->
      <g transform="translate(147.94375 470.813899) scale(0.1 -0.1)">
       <use xlink:href="#DejaVuSans-32"/>
       <use xlink:href="#DejaVuSans-38" transform="translate(63.623047 0)"/>
       <use xlink:href="#DejaVuSans-30" transform="translate(127.246094 0)"/>
       <use xlink:href="#DejaVuSans-2f" transform="translate(190.869141 0)"/>
       <use xlink:href="#DejaVuSans-32" transform="translate(224.560547 0)"/>
       <use xlink:href="#DejaVuSans-30" transform="translate(288.183594 0)"/>
       <use xlink:href="#DejaVuSans-30" transform="translate(351.806641 0)"/>
       <use xlink:href="#DejaVuSans-39" transform="translate(415.429688 0)"/>
       <use xlink:href="#DejaVuSans-20" transform="translate(479.052734 0)"/>
       <use xlink:href="#DejaVuSans-53" transform="translate(510.839844 0)"/>
       <use xlink:href="#DejaVuSans-62" transform="translate(574.316406 0)"/>
       <use xlink:href="#DejaVuSans-2e" transform="translate(637.792969 0)"/>
      </g>
      <!-- Zákon daňový řád -->
      <g transform="translate(124.326562 482.491711) scale(0.1 -0.1)">
       <defs>
        <path id="DejaVuSans-148" d="M 3513 2113 
L 3513 0 
L 2938 0 
L 2938 2094 
Q 2938 2591 2744 2837 
Q 2550 3084 2163 3084 
Q 1697 3084 1428 2787 
Q 1159 2491 1159 1978 
L 1159 0 
L 581 0 
L 581 3500 
L 1159 3500 
L 1159 2956 
Q 1366 3272 1645 3428 
Q 1925 3584 2291 3584 
Q 2894 3584 3203 3211 
Q 3513 2838 3513 2113 
z
M 1809 3944 
L 1043 5119 
L 1478 5119 
L 2040 4353 
L 2603 5119 
L 3037 5119 
L 2271 3944 
L 1809 3944 
z
" transform="scale(0.015625)"/>
       </defs>
       <use xlink:href="#DejaVuSans-5a"/>
       <use xlink:href="#DejaVuSans-e1" transform="translate(68.505859 0)"/>
       <use xlink:href="#DejaVuSans-6b" transform="translate(129.785156 0)"/>
       <use xlink:href="#DejaVuSans-6f" transform="translate(184.070312 0)"/>
       <use xlink:href="#DejaVuSans-6e" transform="translate(245.251953 0)"/>
       <use xlink:href="#DejaVuSans-20" transform="translate(308.630859 0)"/>
       <use xlink:href="#DejaVuSans-64" transform="translate(340.417969 0)"/>
       <use xlink:href="#DejaVuSans-61" transform="translate(403.894531 0)"/>
       <use xlink:href="#DejaVuSans-148" transform="translate(465.173828 0)"/>
       <use xlink:href="#DejaVuSans-6f" transform="translate(528.552734 0)"/>
       <use xlink:href="#DejaVuSans-76" transform="translate(589.734375 0)"/>
       <use xlink:href="#DejaVuSans-fd" transform="translate(648.914062 0)"/>
       <use xlink:href="#DejaVuSans-20" transform="translate(708.09375 0)"/>
       <use xlink:href="#DejaVuSans-159" transform="translate(739.880859 0)"/>
       <use xlink:href="#DejaVuSans-e1" transform="translate(780.994141 0)"/>
       <use xlink:href="#DejaVuSans-64" transform="translate(842.273438 0)"/>
      </g>
     </g>
    </g>
    <g id="ytick_13">
     <g id="line2d_31">
      <g>
       <use xlink:href="#m61282196c7" x="221.903125" y="508.542686" style="stroke: #000000; stroke-width: 0.8"/>
      </g>
     </g>
     <g id="text_23">
      <!-- 134/2016 Sb. -->
      <g transform="translate(147.94375 507.302842) scale(0.1 -0.1)">
       <use xlink:href="#DejaVuSans-31"/>
       <use xlink:href="#DejaVuSans-33" transform="translate(63.623047 0)"/>
       <use xlink:href="#DejaVuSans-34" transform="translate(127.246094 0)"/>
       <use xlink:href="#DejaVuSans-2f" transform="translate(190.869141 0)"/>
       <use xlink:href="#DejaVuSans-32" transform="translate(224.560547 0)"/>
       <use xlink:href="#DejaVuSans-30" transform="translate(288.183594 0)"/>
       <use xlink:href="#DejaVuSans-31" transform="translate(351.806641 0)"/>
       <use xlink:href="#DejaVuSans-36" transform="translate(415.429688 0)"/>
       <use xlink:href="#DejaVuSans-20" transform="translate(479.052734 0)"/>
       <use xlink:href="#DejaVuSans-53" transform="translate(510.839844 0)"/>
       <use xlink:href="#DejaVuSans-62" transform="translate(574.316406 0)"/>
       <use xlink:href="#DejaVuSans-2e" transform="translate(637.792969 0)"/>
      </g>
      <!-- Zákon o zadávání veřejných zakázek -->
      <g transform="translate(30.9 518.980655) scale(0.1 -0.1)">
       <use xlink:href="#DejaVuSans-5a"/>
       <use xlink:href="#DejaVuSans-e1" transform="translate(68.505859 0)"/>
       <use xlink:href="#DejaVuSans-6b" transform="translate(129.785156 0)"/>
       <use xlink:href="#DejaVuSans-6f" transform="translate(184.070312 0)"/>
       <use xlink:href="#DejaVuSans-6e" transform="translate(245.251953 0)"/>
       <use xlink:href="#DejaVuSans-20" transform="translate(308.630859 0)"/>
       <use xlink:href="#DejaVuSans-6f" transform="translate(340.417969 0)"/>
       <use xlink:href="#DejaVuSans-20" transform="translate(401.599609 0)"/>
       <use xlink:href="#DejaVuSans-7a" transform="translate(433.386719 0)"/>
       <use xlink:href="#DejaVuSans-61" transform="translate(485.876953 0)"/>
       <use xlink:href="#DejaVuSans-64" transform="translate(547.15625 0)"/>
       <use xlink:href="#DejaVuSans-e1" transform="translate(610.632812 0)"/>
       <use xlink:href="#DejaVuSans-76" transform="translate(671.912109 0)"/>
       <use xlink:href="#DejaVuSans-e1" transform="translate(731.091797 0)"/>
       <use xlink:href="#DejaVuSans-6e" transform="translate(792.371094 0)"/>
       <use xlink:href="#DejaVuSans-ed" transform="translate(855.75 0)"/>
       <use xlink:href="#DejaVuSans-20" transform="translate(883.533203 0)"/>
       <use xlink:href="#DejaVuSans-76" transform="translate(915.320312 0)"/>
       <use xlink:href="#DejaVuSans-65" transform="translate(974.5 0)"/>
       <use xlink:href="#DejaVuSans-159" transform="translate(1036.023438 0)"/>
       <use xlink:href="#DejaVuSans-65" transform="translate(1074.886719 0)"/>
       <use xlink:href="#DejaVuSans-6a" transform="translate(1136.410156 0)"/>
       <use xlink:href="#DejaVuSans-6e" transform="translate(1164.193359 0)"/>
       <use xlink:href="#DejaVuSans-fd" transform="translate(1227.572266 0)"/>
       <use xlink:href="#DejaVuSans-63" transform="translate(1286.751953 0)"/>
       <use xlink:href="#DejaVuSans-68" transform="translate(1341.732422 0)"/>
       <use xlink:href="#DejaVuSans-20" transform="translate(1405.111328 0)"/>
       <use xlink:href="#DejaVuSans-7a" transform="translate(1436.898438 0)"/>
       <use xlink:href="#DejaVuSans-61" transform="translate(1489.388672 0)"/>
       <use xlink:href="#DejaVuSans-6b" transform="translate(1550.667969 0)"/>
       <use xlink:href="#DejaVuSans-e1" transform="translate(1606.828125 0)"/>
       <use xlink:href="#DejaVuSans-7a" transform="translate(1668.107422 0)"/>
       <use xlink:href="#DejaVuSans-65" transform="translate(1720.597656 0)"/>
       <use xlink:href="#DejaVuSans-6b" transform="translate(1782.121094 0)"/>
      </g>
     </g>
    </g>
    <g id="ytick_14">
     <g id="line2d_32">
      <g>
       <use xlink:href="#m61282196c7" x="221.903125" y="545.03163" style="stroke: #000000; stroke-width: 0.8"/>
      </g>
     </g>
     <g id="text_24">
      <!-- 1/1993 Sb. -->
      <g transform="translate(160.66875 543.160536) scale(0.1 -0.1)">
       <use xlink:href="#DejaVuSans-31"/>
       <use xlink:href="#DejaVuSans-2f" transform="translate(63.623047 0)"/>
       <use xlink:href="#DejaVuSans-31" transform="translate(97.314453 0)"/>
       <use xlink:href="#DejaVuSans-39" transform="translate(160.9375 0)"/>
       <use xlink:href="#DejaVuSans-39" transform="translate(224.560547 0)"/>
       <use xlink:href="#DejaVuSans-33" transform="translate(288.183594 0)"/>
       <use xlink:href="#DejaVuSans-20" transform="translate(351.806641 0)"/>
       <use xlink:href="#DejaVuSans-53" transform="translate(383.59375 0)"/>
       <use xlink:href="#DejaVuSans-62" transform="translate(447.070312 0)"/>
       <use xlink:href="#DejaVuSans-2e" transform="translate(510.546875 0)"/>
      </g>
      <!-- Ústava České republiky -->
      <g transform="translate(98.020312 556.353348) scale(0.1 -0.1)">
       <use xlink:href="#DejaVuSans-da"/>
       <use xlink:href="#DejaVuSans-73" transform="translate(73.193359 0)"/>
       <use xlink:href="#DejaVuSans-74" transform="translate(125.292969 0)"/>
       <use xlink:href="#DejaVuSans-61" transform="translate(164.501953 0)"/>
       <use xlink:href="#DejaVuSans-76" transform="translate(225.78125 0)"/>
       <use xlink:href="#DejaVuSans-61" transform="translate(284.960938 0)"/>
       <use xlink:href="#DejaVuSans-20" transform="translate(346.240234 0)"/>
       <use xlink:href="#DejaVuSans-10c" transform="translate(378.027344 0)"/>
       <use xlink:href="#DejaVuSans-65" transform="translate(447.851562 0)"/>
       <use xlink:href="#DejaVuSans-73" transform="translate(509.375 0)"/>
       <use xlink:href="#DejaVuSans-6b" transform="translate(561.474609 0)"/>
       <use xlink:href="#DejaVuSans-e9" transform="translate(615.759766 0)"/>
       <use xlink:href="#DejaVuSans-20" transform="translate(677.283203 0)"/>
       <use xlink:href="#DejaVuSans-72" transform="translate(709.070312 0)"/>
       <use xlink:href="#DejaVuSans-65" transform="translate(747.933594 0)"/>
       <use xlink:href="#DejaVuSans-70" transform="translate(809.457031 0)"/>
       <use xlink:href="#DejaVuSans-75" transform="translate(872.933594 0)"/>
       <use xlink:href="#DejaVuSans-62" transform="translate(936.3125 0)"/>
       <use xlink:href="#DejaVuSans-6c" transform="translate(999.789062 0)"/>
       <use xlink:href="#DejaVuSans-69" transform="translate(1027.572266 0)"/>
       <use xlink:href="#DejaVuSans-6b" transform="translate(1055.355469 0)"/>
       <use xlink:href="#DejaVuSans-79" transform="translate(1109.640625 0)"/>
      </g>
     </g>
    </g>
    <g id="ytick_15">
     <g id="line2d_33">
      <g>
       <use xlink:href="#m61282196c7" x="221.903125" y="581.520573" style="stroke: #000000; stroke-width: 0.8"/>
      </g>
     </g>
     <g id="text_25">
      <!-- 177/1996 Sb. -->
      <g transform="translate(147.94375 580.280729) scale(0.1 -0.1)">
       <use xlink:href="#DejaVuSans-31"/>
       <use xlink:href="#DejaVuSans-37" transform="translate(63.623047 0)"/>
       <use xlink:href="#DejaVuSans-37" transform="translate(127.246094 0)"/>
       <use xlink:href="#DejaVuSans-2f" transform="translate(190.869141 0)"/>
       <use xlink:href="#DejaVuSans-31" transform="translate(224.560547 0)"/>
       <use xlink:href="#DejaVuSans-39" transform="translate(288.183594 0)"/>
       <use xlink:href="#DejaVuSans-39" transform="translate(351.806641 0)"/>
       <use xlink:href="#DejaVuSans-36" transform="translate(415.429688 0)"/>
       <use xlink:href="#DejaVuSans-20" transform="translate(479.052734 0)"/>
       <use xlink:href="#DejaVuSans-53" transform="translate(510.839844 0)"/>
       <use xlink:href="#DejaVuSans-62" transform="translate(574.316406 0)"/>
       <use xlink:href="#DejaVuSans-2e" transform="translate(637.792969 0)"/>
      </g>
      <!-- Vyhláška Ministerstva spravedlnosti o... -->
      <g transform="translate(16.745312 591.958542) scale(0.1 -0.1)">
       <defs>
        <path id="DejaVuSans-56" d="M 1831 0 
L 50 4666 
L 709 4666 
L 2188 738 
L 3669 4666 
L 4325 4666 
L 2547 0 
L 1831 0 
z
" transform="scale(0.015625)"/>
        <path id="DejaVuSans-161" d="M 2834 3397 
L 2834 2853 
Q 2591 2978 2328 3040 
Q 2066 3103 1784 3103 
Q 1356 3103 1142 2972 
Q 928 2841 928 2578 
Q 928 2378 1081 2264 
Q 1234 2150 1697 2047 
L 1894 2003 
Q 2506 1872 2764 1633 
Q 3022 1394 3022 966 
Q 3022 478 2636 193 
Q 2250 -91 1575 -91 
Q 1294 -91 989 -36 
Q 684 19 347 128 
L 347 722 
Q 666 556 975 473 
Q 1284 391 1588 391 
Q 1994 391 2212 530 
Q 2431 669 2431 922 
Q 2431 1156 2273 1281 
Q 2116 1406 1581 1522 
L 1381 1569 
Q 847 1681 609 1914 
Q 372 2147 372 2553 
Q 372 3047 722 3315 
Q 1072 3584 1716 3584 
Q 2034 3584 2315 3537 
Q 2597 3491 2834 3397 
z
M 1501 3944 
L 736 5119 
L 1170 5119 
L 1733 4353 
L 2295 5119 
L 2729 5119 
L 1964 3944 
L 1501 3944 
z
M 1720 3584 
L 1720 3584 
z
" transform="scale(0.015625)"/>
        <path id="DejaVuSans-4d" d="M 628 4666 
L 1569 4666 
L 2759 1491 
L 3956 4666 
L 4897 4666 
L 4897 0 
L 4281 0 
L 4281 4097 
L 3078 897 
L 2444 897 
L 1241 4097 
L 1241 0 
L 628 0 
L 628 4666 
z
" transform="scale(0.015625)"/>
       </defs>
       <use xlink:href="#DejaVuSans-56"/>
       <use xlink:href="#DejaVuSans-79" transform="translate(65.783203 0)"/>
       <use xlink:href="#DejaVuSans-68" transform="translate(124.962891 0)"/>
       <use xlink:href="#DejaVuSans-6c" transform="translate(188.341797 0)"/>
       <use xlink:href="#DejaVuSans-e1" transform="translate(216.125 0)"/>
       <use xlink:href="#DejaVuSans-161" transform="translate(277.404297 0)"/>
       <use xlink:href="#DejaVuSans-6b" transform="translate(329.503906 0)"/>
       <use xlink:href="#DejaVuSans-61" transform="translate(385.664062 0)"/>
       <use xlink:href="#DejaVuSans-20" transform="translate(446.943359 0)"/>
       <use xlink:href="#DejaVuSans-4d" transform="translate(478.730469 0)"/>
       <use xlink:href="#DejaVuSans-69" transform="translate(565.009766 0)"/>
       <use xlink:href="#DejaVuSans-6e" transform="translate(592.792969 0)"/>
       <use xlink:href="#DejaVuSans-69" transform="translate(656.171875 0)"/>
       <use xlink:href="#DejaVuSans-73" transform="translate(683.955078 0)"/>
       <use xlink:href="#DejaVuSans-74" transform="translate(736.054688 0)"/>
       <use xlink:href="#DejaVuSans-65" transform="translate(775.263672 0)"/>
       <use xlink:href="#DejaVuSans-72" transform="translate(836.787109 0)"/>
       <use xlink:href="#DejaVuSans-73" transform="translate(877.900391 0)"/>
       <use xlink:href="#DejaVuSans-74" transform="translate(930 0)"/>
       <use xlink:href="#DejaVuSans-76" transform="translate(969.208984 0)"/>
       <use xlink:href="#DejaVuSans-61" transform="translate(1028.388672 0)"/>
       <use xlink:href="#DejaVuSans-20" transform="translate(1089.667969 0)"/>
       <use xlink:href="#DejaVuSans-73" transform="translate(1121.455078 0)"/>
       <use xlink:href="#DejaVuSans-70" transform="translate(1173.554688 0)"/>
       <use xlink:href="#DejaVuSans-72" transform="translate(1237.03125 0)"/>
       <use xlink:href="#DejaVuSans-61" transform="translate(1278.144531 0)"/>
       <use xlink:href="#DejaVuSans-76" transform="translate(1339.423828 0)"/>
       <use xlink:href="#DejaVuSans-65" transform="translate(1398.603516 0)"/>
       <use xlink:href="#DejaVuSans-64" transform="translate(1460.126953 0)"/>
       <use xlink:href="#DejaVuSans-6c" transform="translate(1523.603516 0)"/>
       <use xlink:href="#DejaVuSans-6e" transform="translate(1551.386719 0)"/>
       <use xlink:href="#DejaVuSans-6f" transform="translate(1614.765625 0)"/>
       <use xlink:href="#DejaVuSans-73" transform="translate(1675.947266 0)"/>
       <use xlink:href="#DejaVuSans-74" transform="translate(1728.046875 0)"/>
       <use xlink:href="#DejaVuSans-69" transform="translate(1767.255859 0)"/>
       <use xlink:href="#DejaVuSans-20" transform="translate(1795.039062 0)"/>
       <use xlink:href="#DejaVuSans-6f" transform="translate(1826.826172 0)"/>
       <use xlink:href="#DejaVuSans-2e" transform="translate(1886.257812 0)"/>
       <use xlink:href="#DejaVuSans-2e" transform="translate(1918.044922 0)"/>
       <use xlink:href="#DejaVuSans-2e" transform="translate(1949.832031 0)"/>
      </g>
     </g>
    </g>
   </g>
   <g id="patch_3">
    <path d="M 221.903125 56.079787 
L 833.493601 56.079787 
L 833.493601 85.270942 
L 221.903125 85.270942 
z
" clip-path="url(#p6e9322731b)" style="fill: #88a8cf; stroke: #7093bb; stroke-width: 0.6; stroke-linejoin: miter"/>
   </g>
   <g id="patch_4">
    <path d="M 221.903125 92.56873 
L 729.228745 92.56873 
L 729.228745 121.759885 
L 221.903125 121.759885 
z
" clip-path="url(#p6e9322731b)" style="fill: #88a8cf; stroke: #7093bb; stroke-width: 0.6; stroke-linejoin: miter"/>
   </g>
   <g id="patch_5">
    <path d="M 221.903125 129.057674 
L 671.815635 129.057674 
L 671.815635 158.248829 
L 221.903125 158.248829 
z
" clip-path="url(#p6e9322731b)" style="fill: #88a8cf; stroke: #7093bb; stroke-width: 0.6; stroke-linejoin: miter"/>
   </g>
   <g id="patch_6">
    <path d="M 221.903125 165.546617 
L 422.311628 165.546617 
L 422.311628 194.737772 
L 221.903125 194.737772 
z
" clip-path="url(#p6e9322731b)" style="fill: #88a8cf; stroke: #7093bb; stroke-width: 0.6; stroke-linejoin: miter"/>
   </g>
   <g id="patch_7">
    <path d="M 221.903125 202.035561 
L 385.33819 202.035561 
L 385.33819 231.226716 
L 221.903125 231.226716 
z
" clip-path="url(#p6e9322731b)" style="fill: #88a8cf; stroke: #7093bb; stroke-width: 0.6; stroke-linejoin: miter"/>
   </g>
   <g id="patch_8">
    <path d="M 221.903125 238.524504 
L 384.277866 238.524504 
L 384.277866 267.715659 
L 221.903125 267.715659 
z
" clip-path="url(#p6e9322731b)" style="fill: #88a8cf; stroke: #7093bb; stroke-width: 0.6; stroke-linejoin: miter"/>
   </g>
   <g id="patch_9">
    <path d="M 221.903125 275.013448 
L 369.294333 275.013448 
L 369.294333 304.204603 
L 221.903125 304.204603 
z
" clip-path="url(#p6e9322731b)" style="fill: #88a8cf; stroke: #7093bb; stroke-width: 0.6; stroke-linejoin: miter"/>
   </g>
   <g id="patch_10">
    <path d="M 221.903125 311.502391 
L 337.081704 311.502391 
L 337.081704 340.693546 
L 221.903125 340.693546 
z
" clip-path="url(#p6e9322731b)" style="fill: #88a8cf; stroke: #7093bb; stroke-width: 0.6; stroke-linejoin: miter"/>
   </g>
   <g id="patch_11">
    <path d="M 221.903125 347.991335 
L 333.836469 347.991335 
L 333.836469 377.18249 
L 221.903125 377.18249 
z
" clip-path="url(#p6e9322731b)" style="fill: #88a8cf; stroke: #7093bb; stroke-width: 0.6; stroke-linejoin: miter"/>
   </g>
   <g id="patch_12">
    <path d="M 221.903125 384.480278 
L 318.476028 384.480278 
L 318.476028 413.671433 
L 221.903125 413.671433 
z
" clip-path="url(#p6e9322731b)" style="fill: #88a8cf; stroke: #7093bb; stroke-width: 0.6; stroke-linejoin: miter"/>
   </g>
   <g id="patch_13">
    <path d="M 221.903125 420.969222 
L 308.274243 420.969222 
L 308.274243 450.160377 
L 221.903125 450.160377 
z
" clip-path="url(#p6e9322731b)" style="fill: #88a8cf; stroke: #7093bb; stroke-width: 0.6; stroke-linejoin: miter"/>
   </g>
   <g id="patch_14">
    <path d="M 221.903125 457.458165 
L 307.693718 457.458165 
L 307.693718 486.64932 
L 221.903125 486.64932 
z
" clip-path="url(#p6e9322731b)" style="fill: #88a8cf; stroke: #7093bb; stroke-width: 0.6; stroke-linejoin: miter"/>
   </g>
   <g id="patch_15">
    <path d="M 221.903125 493.947109 
L 299.242894 493.947109 
L 299.242894 523.138264 
L 221.903125 523.138264 
z
" clip-path="url(#p6e9322731b)" style="fill: #88a8cf; stroke: #7093bb; stroke-width: 0.6; stroke-linejoin: miter"/>
   </g>
   <g id="patch_16">
    <path d="M 221.903125 530.436052 
L 295.536633 530.436052 
L 295.536633 559.627207 
L 221.903125 559.627207 
z
" clip-path="url(#p6e9322731b)" style="fill: #88a8cf; stroke: #7093bb; stroke-width: 0.6; stroke-linejoin: miter"/>
   </g>
   <g id="patch_17">
    <path d="M 221.903125 566.924996 
L 294.021781 566.924996 
L 294.021781 596.116151 
L 221.903125 596.116151 
z
" clip-path="url(#p6e9322731b)" style="fill: #88a8cf; stroke: #7093bb; stroke-width: 0.6; stroke-linejoin: miter"/>
   </g>
   <g id="patch_18">
    <path d="M 221.903125 623.117969 
L 221.903125 29.077969 
" style="fill: none; stroke: #b8b8b8; stroke-width: 0.8; stroke-linejoin: miter; stroke-linecap: square"/>
   </g>
   <g id="patch_19">
    <path d="M 221.903125 623.117969 
L 864.073125 623.117969 
" style="fill: none; stroke: #b8b8b8; stroke-width: 0.8; stroke-linejoin: miter; stroke-linecap: square"/>
   </g>
   <g id="text_26">
    <!-- Most Frequently Cited Legal Acts -->
    <g transform="translate(436.563828 17.077969) scale(0.13 -0.13)">
     <defs>
      <path id="DejaVuSans-46" d="M 628 4666 
L 3309 4666 
L 3309 4134 
L 1259 4134 
L 1259 2759 
L 3109 2759 
L 3109 2228 
L 1259 2228 
L 1259 0 
L 628 0 
L 628 4666 
z
" transform="scale(0.015625)"/>
      <path id="DejaVuSans-71" d="M 947 1747 
Q 947 1113 1208 752 
Q 1469 391 1925 391 
Q 2381 391 2643 752 
Q 2906 1113 2906 1747 
Q 2906 2381 2643 2742 
Q 2381 3103 1925 3103 
Q 1469 3103 1208 2742 
Q 947 2381 947 1747 
z
M 2906 525 
Q 2725 213 2448 61 
Q 2172 -91 1784 -91 
Q 1150 -91 751 415 
Q 353 922 353 1747 
Q 353 2572 751 3078 
Q 1150 3584 1784 3584 
Q 2172 3584 2448 3432 
Q 2725 3281 2906 2969 
L 2906 3500 
L 3481 3500 
L 3481 -1331 
L 2906 -1331 
L 2906 525 
z
" transform="scale(0.015625)"/>
      <path id="DejaVuSans-4c" d="M 628 4666 
L 1259 4666 
L 1259 531 
L 3531 531 
L 3531 0 
L 628 0 
L 628 4666 
z
" transform="scale(0.015625)"/>
      <path id="DejaVuSans-67" d="M 2906 1791 
Q 2906 2416 2648 2759 
Q 2391 3103 1925 3103 
Q 1463 3103 1205 2759 
Q 947 2416 947 1791 
Q 947 1169 1205 825 
Q 1463 481 1925 481 
Q 2391 481 2648 825 
Q 2906 1169 2906 1791 
z
M 3481 434 
Q 3481 -459 3084 -895 
Q 2688 -1331 1869 -1331 
Q 1566 -1331 1297 -1286 
Q 1028 -1241 775 -1147 
L 775 -588 
Q 1028 -725 1275 -790 
Q 1522 -856 1778 -856 
Q 2344 -856 2625 -561 
Q 2906 -266 2906 331 
L 2906 616 
Q 2728 306 2450 153 
Q 2172 0 1784 0 
Q 1141 0 747 490 
Q 353 981 353 1791 
Q 353 2603 747 3093 
Q 1141 3584 1784 3584 
Q 2172 3584 2450 3431 
Q 2728 3278 2906 2969 
L 2906 3500 
L 3481 3500 
L 3481 434 
z
" transform="scale(0.015625)"/>
      <path id="DejaVuSans-41" d="M 2188 4044 
L 1331 1722 
L 3047 1722 
L 2188 4044 
z
M 1831 4666 
L 2547 4666 
L 4325 0 
L 3669 0 
L 3244 1197 
L 1141 1197 
L 716 0 
L 50 0 
L 1831 4666 
z
" transform="scale(0.015625)"/>
     </defs>
     <use xlink:href="#DejaVuSans-4d"/>
     <use xlink:href="#DejaVuSans-6f" transform="translate(86.279297 0)"/>
     <use xlink:href="#DejaVuSans-73" transform="translate(147.460938 0)"/>
     <use xlink:href="#DejaVuSans-74" transform="translate(199.560547 0)"/>
     <use xlink:href="#DejaVuSans-20" transform="translate(238.769531 0)"/>
     <use xlink:href="#DejaVuSans-46" transform="translate(270.556641 0)"/>
     <use xlink:href="#DejaVuSans-72" transform="translate(320.826172 0)"/>
     <use xlink:href="#DejaVuSans-65" transform="translate(359.689453 0)"/>
     <use xlink:href="#DejaVuSans-71" transform="translate(421.212891 0)"/>
     <use xlink:href="#DejaVuSans-75" transform="translate(484.689453 0)"/>
     <use xlink:href="#DejaVuSans-65" transform="translate(548.068359 0)"/>
     <use xlink:href="#DejaVuSans-6e" transform="translate(609.591797 0)"/>
     <use xlink:href="#DejaVuSans-74" transform="translate(672.970703 0)"/>
     <use xlink:href="#DejaVuSans-6c" transform="translate(712.179688 0)"/>
     <use xlink:href="#DejaVuSans-79" transform="translate(739.962891 0)"/>
     <use xlink:href="#DejaVuSans-20" transform="translate(799.142578 0)"/>
     <use xlink:href="#DejaVuSans-43" transform="translate(830.929688 0)"/>
     <use xlink:href="#DejaVuSans-69" transform="translate(900.753906 0)"/>
     <use xlink:href="#DejaVuSans-74" transform="translate(928.537109 0)"/>
     <use xlink:href="#DejaVuSans-65" transform="translate(967.746094 0)"/>
     <use xlink:href="#DejaVuSans-64" transform="translate(1029.269531 0)"/>
     <use xlink:href="#DejaVuSans-20" transform="translate(1092.746094 0)"/>
     <use xlink:href="#DejaVuSans-4c" transform="translate(1124.533203 0)"/>
     <use xlink:href="#DejaVuSans-65" transform="translate(1178.496094 0)"/>
     <use xlink:href="#DejaVuSans-67" transform="translate(1240.019531 0)"/>
     <use xlink:href="#DejaVuSans-61" transform="translate(1303.496094 0)"/>
     <use xlink:href="#DejaVuSans-6c" transform="translate(1364.775391 0)"/>
     <use xlink:href="#DejaVuSans-20" transform="translate(1392.558594 0)"/>
     <use xlink:href="#DejaVuSans-41" transform="translate(1424.345703 0)"/>
     <use xlink:href="#DejaVuSans-63" transform="translate(1491.003906 0)"/>
     <use xlink:href="#DejaVuSans-74" transform="translate(1545.984375 0)"/>
     <use xlink:href="#DejaVuSans-73" transform="translate(1585.193359 0)"/>
    </g>
   </g>
  </g>
 </g>
 <defs>
  <clipPath id="p6e9322731b">
   <rect x="221.903125" y="29.077969" width="642.17" height="594.04"/>
  </clipPath>
 </defs>
</svg>
